<svg width="1440" height="1024" viewBox="0 0 1440 1024" fill="none" xmlns="http://www.w3.org/2000/svg">
<rect width="1440" height="1024" fill="#E5E5E5"/>
<g id="Desktop - 1">
<rect width="1440" height="1024" fill="white"/>
<g id="undraw_newspaper_k72w 1">
<g clip-path="url(#clip0)">
<g id="Vector">
<path d="M928 808.158H443L443.219 756.736C443.772 626.621 547.627 519.407 677.725 517.194C679.13 517.17 680.538 517.158 681.948 517.158H681.949C711.223 517.136 740.265 522.353 767.701 532.564C859.755 566.846 921.542 653.947 925.652 752.092L928 808.158Z" fill="#6C63FF"/>
<path d="M928 808.158H443L443.219 756.736C443.772 626.621 547.627 519.407 677.725 517.194C679.13 517.17 680.538 517.158 681.948 517.158H681.949C711.223 517.136 740.265 522.353 767.701 532.564C859.755 566.846 921.542 653.947 925.652 752.092L928 808.158Z" fill="url(#paint0_linear)"/>
</g>
<g id="left-foot">
<path id="Vector_2" d="M677.287 578.165L698.657 593.708L720.028 776.33H770.54L753.055 568.451L683.115 541.252L677.287 578.165Z" fill="#2F2E41"/>
<path id="Vector_3" d="M727.799 772.444C727.799 772.444 716.142 817.128 723.913 821.014C728.588 823.349 733.128 825.944 737.513 828.785V821.014C737.513 821.014 747.227 830.728 747.227 838.499C747.227 846.27 799.682 848.213 799.682 838.499C799.682 828.785 797.739 817.128 788.025 811.3C778.312 805.471 766.655 772.444 766.655 772.444H727.799Z" fill="#2F2E41"/>
</g>
<g id="right-foot">
<path id="Vector_4" d="M587.918 519.882C587.918 519.882 582.09 585.936 605.404 587.879C628.717 589.822 718.085 568.451 718.085 568.451L760.826 719.989L824.938 686.961C824.938 686.961 786.083 515.996 762.769 506.282C739.456 496.568 661.744 477.14 661.744 477.14L605.404 486.854L587.918 519.882Z" fill="#2F2E41"/>
<path id="Vector_5" d="M784.14 692.79L788.025 729.703L801.625 753.016L834.652 716.103L809.396 675.305L784.14 692.79Z" fill="#2F2E41"/>
<path id="Vector_6" d="M815.224 729.703C815.224 729.703 822.378 705.242 829.487 707.759C836.595 710.275 863.794 735.531 863.794 735.531L883.222 747.188C883.222 747.188 922.078 751.073 910.421 762.73C898.764 774.387 856.023 789.929 836.595 782.158C817.167 774.387 813.282 772.444 813.282 772.444L807.453 776.33L784.14 770.501L788.025 729.703C788.025 729.703 793.854 747.188 815.224 729.703Z" fill="#2F2E41"/>
</g>
<g id="body">
<path id="Vector_7" d="M625.803 258.577C625.803 258.577 629.688 299.375 618.032 299.375C606.375 299.375 619.974 349.888 651.059 349.888C682.144 349.888 693.8 289.661 693.8 289.661C693.8 289.661 672.43 281.89 676.315 256.634C680.201 231.378 625.803 258.577 625.803 258.577Z" fill="#9F616A"/>
<path id="Vector_8" d="M622.707 296.263L606.375 303.261L562.05 322.014C560.263 322.77 558.768 324.083 557.788 325.758C556.809 327.433 556.397 329.38 556.614 331.308L573.348 480.055C573.348 480.055 555.862 516.968 583.061 518.91L586.947 532.51L618.032 495.597L734.599 491.711L736.542 303.261L683.206 282.185C683.206 282.185 675.952 322.293 622.707 296.263Z" fill="#3F3D56"/>
<path id="Vector_9" d="M568.491 327.546L561.311 325.495C560.506 325.265 559.661 325.208 558.833 325.329C558.004 325.449 557.211 325.744 556.505 326.194C555.799 326.644 555.196 327.238 554.737 327.938C554.277 328.638 553.972 329.427 553.84 330.254L534.788 449.761C533.302 458.611 534.725 467.705 538.843 475.678C544.729 486.824 556.955 496.933 582.09 484.912L599.575 358.63L568.491 327.546Z" fill="#3F3D56"/>
<path id="Vector_10" d="M714.2 300.347L737.513 304.232L801.625 393.601L807.453 409.143L844.366 397.486C844.366 397.486 842.424 414.971 861.851 413.028C861.851 413.028 838.538 477.14 789.968 457.713C741.399 438.285 725.856 380.001 725.856 380.001L714.2 300.347Z" fill="#3F3D56"/>
<path id="Vector_11" d="M741.399 339.203L653.973 304.232L650.088 315.889L690.886 350.859L741.399 339.203Z" fill="#CCCCCC"/>
</g>
<g id="head">
<path id="Vector_12" d="M653.973 277.033C678.651 277.033 698.657 257.028 698.657 232.349C698.657 207.671 678.651 187.665 653.973 187.665C629.295 187.665 609.289 207.671 609.289 232.349C609.289 257.028 629.295 277.033 653.973 277.033Z" fill="#9F616A"/>
<path id="Vector_13" d="M627.07 235.198C628.72 234.757 628.962 232.566 629.018 230.859C629.314 221.716 634.819 212.335 643.571 209.674C646.929 208.753 650.445 208.559 653.884 209.106C658.793 209.76 663.532 211.341 667.85 213.766C670.13 215.047 672.366 216.59 674.951 216.982C676.658 217.24 684.051 219.39 685.752 219.692C689.49 220.358 692.964 223.702 696.551 222.457C699.983 221.267 700.742 216.823 700.825 213.192C701.014 204.919 694.734 193.468 689.202 187.314C685.004 182.643 678.683 180.487 672.504 179.366C665.286 178.206 657.971 177.761 650.666 178.038C640.777 178.214 630.615 178.977 621.698 183.256C612.781 187.534 605.291 196.05 604.864 205.931C604.775 207.989 604.987 210.056 604.814 212.109C604.392 217.117 601.732 221.641 600.485 226.509C599.593 230.081 599.46 233.801 600.094 237.428C600.727 241.055 602.114 244.509 604.165 247.567C607.474 252.437 620.708 256.858 620.516 262.743C622.908 260.265 617.267 257.77 619.659 255.292C620.731 254.474 621.49 253.313 621.809 252.003C622.128 250.692 621.987 249.313 621.412 248.093L618.872 238.186C618.407 236.372 617.95 234.409 618.652 232.673C621.375 225.945 624.318 235.933 627.07 235.198Z" fill="#2F2E41"/>
</g>
<g id="hand-new">
<path id="Vector_14" d="M650.088 315.889L613.175 459.655L756.941 510.168L840.481 440.227L892.936 282.862L807.453 345.031L650.088 315.889Z" fill="#F2F2F2"/>
<path id="Vector_15" d="M657.135 331.464L656.64 333.342L796.52 370.255L797.016 368.377L657.135 331.464Z" fill="#E6E6E6"/>
<path id="Vector_16" d="M653.25 341.178L652.754 343.056L792.635 379.969L793.13 378.091L653.25 341.178Z" fill="#E6E6E6"/>
<path id="Vector_17" d="M651.307 350.892L650.811 352.77L790.692 389.683L791.187 387.805L651.307 350.892Z" fill="#E6E6E6"/>
<path id="Vector_18" d="M649.364 360.606L648.868 362.484L788.749 399.397L789.245 397.519L649.364 360.606Z" fill="#E6E6E6"/>
<path id="Vector_19" d="M647.421 370.319L646.926 372.198L786.806 409.111L787.302 407.232L647.421 370.319Z" fill="#E6E6E6"/>
<path id="Vector_20" d="M645.478 380.033L644.983 381.912L784.863 418.825L785.359 416.946L645.478 380.033Z" fill="#E6E6E6"/>
<path id="Vector_21" d="M643.536 389.747L643.04 391.626L782.921 428.538L783.416 426.66L643.536 389.747Z" fill="#E6E6E6"/>
<path id="Vector_22" d="M641.593 399.461L641.097 401.339L780.978 438.252L781.474 436.374L641.593 399.461Z" fill="#E6E6E6"/>
<path id="Vector_23" d="M639.65 409.175L639.154 411.053L779.035 447.966L779.531 446.088L639.65 409.175Z" fill="#E6E6E6"/>
<path id="Vector_24" d="M590.85 421.642C590.85 421.642 634.545 395.543 653.973 413.028C673.401 430.514 597.632 455.77 597.632 455.77L590.85 421.642Z" fill="#9F616A"/>
<path id="Vector_25" d="M543.234 434.399L599.575 413.028C599.575 413.028 589.861 449.941 609.289 451.884L582.09 484.912C582.09 484.912 527.692 484.912 543.234 434.399Z" fill="#3F3D56"/>
<path id="Vector_26" d="M691.494 433.602L766.255 458.799L748.562 497.365L673.801 472.169L691.494 433.602Z" fill="#E6E6E6"/>
<path id="Vector_27" d="M823.967 351.831L880.308 309.089L864.766 361.545L806.482 404.286L823.967 351.831Z" fill="#CCCCCC"/>
<path id="Vector_28" d="M852.522 380.199L796.18 422.939L797.355 424.487L853.697 381.747L852.522 380.199Z" fill="#E6E6E6"/>
<path id="Vector_29" d="M848.637 401.57L792.295 444.31L793.469 445.858L849.811 403.118L848.637 401.57Z" fill="#E6E6E6"/>
<path id="Vector_30" d="M856.023 414.971C856.023 414.971 904.593 385.829 873.508 374.173C842.423 362.516 842.423 407.2 842.423 407.2C842.423 407.2 840.481 416.914 856.023 414.971Z" fill="#9F616A"/>
<path id="Vector_31" opacity="0.1" d="M571.405 349.888L569.462 425.657L599.575 417.063L575.29 417.885L571.405 349.888Z" fill="black"/>
</g>
</g>
</g>
</g>
<defs>
<linearGradient id="paint0_linear" x1="685.5" y1="517.158" x2="685.5" y2="808.158" gradientUnits="userSpaceOnUse">
<stop stop-color="#7EC6E4"/>
<stop offset="1" stop-color="white" stop-opacity="0"/>
</linearGradient>
<clipPath id="clip0">
<rect x="279" y="178" width="799" height="667.076" fill="white"/>
</clipPath>
</defs>
</svg>
