<svg width="1440" height="1024" viewBox="0 0 1440 1024" fill="none" xmlns="http://www.w3.org/2000/svg">
<rect width="1440" height="1024" fill="#E5E5E5"/>
<g id="Desktop - 1">
<rect width="1440" height="1024" fill="white"/>
<g id="undraw_content_vbqo 1">
<g clip-path="url(#clip0)">
<path id="Vector" opacity="0.1" d="M1171.75 913.8C1227.04 913.8 1271.86 902.728 1271.86 889.07C1271.86 875.412 1227.04 864.34 1171.75 864.34C1116.46 864.34 1071.64 875.412 1071.64 889.07C1071.64 902.728 1116.46 913.8 1171.75 913.8Z" fill="#38ECE1"/>
<path id="Vector_2" opacity="0.1" d="M288.04 917.92C343.329 917.92 388.15 906.848 388.15 893.19C388.15 879.532 343.329 868.46 288.04 868.46C232.751 868.46 187.93 879.532 187.93 893.19C187.93 906.848 232.751 917.92 288.04 917.92Z" fill="#38ECE1"/>
<path id="Vector_3" d="M832.74 287.87C832.74 287.87 818.67 282.16 773.93 302.69C729.19 323.22 723.57 320.6 712.01 317.46C700.45 314.32 694.01 313.58 681.55 296.46C681.55 296.46 672.79 248.98 664.32 241.62C655.85 234.26 619.82 245.81 619.82 245.81C619.82 245.81 576.63 255.72 568.4 198C568.4 198 574.24 154.49 566.29 141.14C566.29 141.14 582.29 148.07 608.83 136.89C635.37 125.71 656.52 148.89 656.52 148.89C656.52 148.89 663.2 166.19 662.52 176.5C661.84 186.81 666.05 190.68 678.69 185.7C678.69 185.7 684.89 176.87 676.1 162.28C667.31 147.69 661.04 136.81 663.5 125.48C665.96 114.15 673 98.48 695.66 90.58C718.32 82.68 749.1 81.2 763.88 75.05C778.66 68.9 782.23 64.9 782.23 64.9C782.23 64.9 773.12 74.04 794.57 112.65C816.02 151.26 802.34 168.03 802.34 168.03C802.34 168.03 790.94 195.19 740.64 193.03C740.64 193.03 692.17 194.8 718.64 215.36C718.64 215.36 735.57 211.91 760.87 203.87C786.17 195.83 804.44 229.02 808.97 252.12C813.5 275.22 832.74 287.87 832.74 287.87Z" fill="#38ECE1"/>
<path id="Vector_4" d="M767.57 94.21L767.84 94.14C769.78 101.51 748.11 131.14 729.6 154.67L729.38 154.5C755.51 121.29 769.08 99.88 767.57 94.21Z" fill="#9A86E4"/>
<path id="Vector_5" d="M729.77 154.01L729.88 154.31C715.09 173.12 696.49 195.56 681.6 212.18C680.18 213.77 678.77 215.43 677.41 217.13L676.99 216.78C678.35 215.08 679.77 213.41 681.19 211.78C696.07 195.21 714.99 172.81 729.77 154.01Z" fill="#9A86E4"/>
<path id="Vector_6" d="M677.35 216.34L677.64 216.84C650.54 250.67 648.75 303.2 648.64 303.66L642.92 297.06C643.04 296.6 650.06 250.4 677.35 216.34Z" fill="#9A86E4"/>
<path id="Vector_7" d="M801.31 269.52C801.31 269.52 769.31 252.91 744.46 258.87C719.61 264.83 663.46 237.81 663.46 237.81C663.46 237.81 639.65 228.13 634.87 217.11C634.87 217.11 618.54 199.85 617.61 190.91C616.68 181.97 600.78 159.51 590.41 158.64" stroke="#9A86E4" stroke-miterlimit="10"/>
<path id="Vector_8" d="M796.69 285.51C796.69 285.51 780.57 274.67 782.47 262.04" stroke="#9A86E4" stroke-miterlimit="10"/>
<path id="Vector_9" d="M772 299.52C772 299.52 749 291.16 746.68 258.41" stroke="#9A86E4" stroke-miterlimit="10"/>
<path id="Vector_10" d="M734.87 308C734.87 308 712.87 289.75 720.18 257.87" stroke="#9A86E4" stroke-miterlimit="10"/>
<path id="Vector_11" d="M690.25 299.08C690.25 299.08 675.6 268.37 688.63 248.39" stroke="#9A86E4" stroke-miterlimit="10"/>
<path id="Vector_12" d="M801.69 249.28C801.69 249.28 785.04 254.56 788.61 263.28" stroke="#9A86E4" stroke-miterlimit="10"/>
<path id="Vector_13" d="M781.57 219.07C781.57 219.07 759.3 226.14 758.77 257.64" stroke="#9A86E4" stroke-miterlimit="10"/>
<path id="Vector_14" d="M750.57 211.8C750.57 211.8 730.31 236.8 731.8 259.55" stroke="#9A86E4" stroke-miterlimit="10"/>
<path id="Vector_15" d="M715.05 221.61C715.05 221.61 694.92 240.85 697.49 251.56" stroke="#9A86E4" stroke-miterlimit="10"/>
<path id="Vector_16" d="M702.91 214.81C702.91 214.81 684.03 218.2 681.39 212" stroke="#9A86E4" stroke-miterlimit="10"/>
<path id="Vector_17" d="M678.38 192.02C678.38 192.02 687.92 204.65 690.38 201.82" stroke="#9A86E4" stroke-miterlimit="10"/>
<path id="Vector_18" d="M772.93 184.03C772.93 184.03 725.35 187.46 714.57 173.14" stroke="#9A86E4" stroke-miterlimit="10"/>
<path id="Vector_19" d="M668.37 128.37C668.37 128.37 690.7 176.3 706.91 182.37" stroke="#9A86E4" stroke-miterlimit="10"/>
<path id="Vector_20" d="M691.79 105.54C691.79 105.54 705.51 149.63 722.5 163.39" stroke="#9A86E4" stroke-miterlimit="10"/>
<path id="Vector_21" d="M792.96 147.65C792.96 147.65 756.77 163.18 735.04 147.47" stroke="#9A86E4" stroke-width="0.75" stroke-miterlimit="10"/>
<path id="Vector_22" d="M724.03 96.14C724.03 96.14 732.3 128.55 743.44 136.38" stroke="#9A86E4" stroke-width="0.75" stroke-miterlimit="10"/>
<path id="Vector_23" d="M787.49 111.35C787.49 111.35 767.16 119.05 759.56 113.15" stroke="#9A86E4" stroke-width="0.75" stroke-miterlimit="10"/>
<path id="Vector_24" d="M660.96 202.61C660.96 202.61 660.96 230.86 653.27 232.87" stroke="#9A86E4" stroke-miterlimit="10"/>
<path id="Vector_25" d="M598.09 239.21C598.09 239.21 628.63 241.83 642.72 226.07" stroke="#9A86E4" stroke-miterlimit="10"/>
<path id="Vector_26" d="M653.08 169.24C653.08 169.24 645.69 197.89 625.3 205.61" stroke="#9A86E4" stroke-miterlimit="10"/>
<path id="Vector_27" d="M579.77 209.03C579.77 209.03 601.39 216.55 619.98 197.41" stroke="#9A86E4" stroke-miterlimit="10"/>
<path id="Vector_28" d="M629.04 144.61C629.04 144.61 627.04 168.94 613.77 180.33" stroke="#9A86E4" stroke-miterlimit="10"/>
<path id="Vector_29" d="M580.57 171.95C580.57 171.95 598.51 172.08 602.71 166.23" stroke="#9A86E4" stroke-miterlimit="10"/>
<path id="Vector_30" opacity="0.1" d="M739.97 192.46C668.57 204.37 597.06 197.96 528.22 189.08C459.38 180.2 390.7 168.86 319.15 171.08C273.15 172.52 221.98 181.56 190.15 209.3C159.53 235.99 155.15 272.48 155.44 305.48C155.66 330.3 157.99 356.01 174.8 375.97C186.47 389.82 204.31 399.88 217.8 412.69C264.8 457.27 251.47 526.33 221.71 584.81C207.71 612.25 190.6 639.18 181.21 667.31C171.82 695.44 170.89 725.74 188.57 749.03C206.11 772.12 239.66 785.42 274.57 792.55C345.46 807.02 424.14 799.55 500.24 789.16C668.68 766.05 835.24 728.67 1001.32 691.36C1062.79 677.56 1124.53 663.68 1183.67 643.36C1216.51 632.1 1249.92 617.93 1270.95 595.52C1297.64 567.07 1297.88 527.8 1271.51 503.98C1227.27 463.98 1128.3 471.5 1093.91 425.98C1074.97 400.98 1082.68 367.36 1097.15 337.81C1128.15 274.41 1188.9 212.16 1180.15 148.45C1174.15 104.69 1131.77 68.05 1075.47 57.92C1016.47 47.31 941.06 65.03 907.69 108.54C873.33 153.46 803.01 181.96 739.97 192.46Z" fill="#38ECE1"/>
<path id="Vector_31" d="M1162.13 205.11H236.78C229.882 205.11 224.29 210.702 224.29 217.6V730.95C224.29 737.848 229.882 743.44 236.78 743.44H1162.13C1169.03 743.44 1174.62 737.848 1174.62 730.95V217.6C1174.62 210.702 1169.03 205.11 1162.13 205.11Z" fill="url(#paint0_linear)"/>
<path id="Vector_32" d="M1160.73 212.68H238.29C231.392 212.68 225.8 218.272 225.8 225.17V729.16C225.8 736.058 231.392 741.65 238.29 741.65H1160.73C1167.63 741.65 1173.22 736.058 1173.22 729.16V225.17C1173.22 218.272 1167.63 212.68 1160.73 212.68Z" fill="white"/>
<path id="Vector_33" d="M1160.73 212.68H238.29C231.392 212.68 225.8 218.272 225.8 225.17V729.16C225.8 736.058 231.392 741.65 238.29 741.65H1160.73C1167.63 741.65 1173.22 736.058 1173.22 729.16V225.17C1173.22 218.272 1167.63 212.68 1160.73 212.68Z" fill="white"/>
<path id="Vector_34" opacity="0.04" d="M1160.73 212.68H238.29C231.392 212.68 225.8 218.272 225.8 225.17V729.16C225.8 736.058 231.392 741.65 238.29 741.65H1160.73C1167.63 741.65 1173.22 736.058 1173.22 729.16V225.17C1173.22 218.272 1167.63 212.68 1160.73 212.68Z" fill="#5A5773"/>
<path id="Vector_35" d="M1168.41 206.61H230.57C229.294 206.61 228.071 207.117 227.169 208.019C226.267 208.921 225.76 210.144 225.76 211.42V231.76H1173.18V211.46C1173.19 210.828 1173.07 210.202 1172.83 209.616C1172.59 209.031 1172.24 208.497 1171.8 208.047C1171.36 207.597 1170.83 207.238 1170.25 206.991C1169.67 206.745 1169.04 206.615 1168.41 206.61Z" fill="#5A5773"/>
<g id="buttons">
<path id="Vector_36" d="M244.72 225.68C248.31 225.68 251.22 222.77 251.22 219.18C251.22 215.59 248.31 212.68 244.72 212.68C241.13 212.68 238.22 215.59 238.22 219.18C238.22 222.77 241.13 225.68 244.72 225.68Z" fill="white"/>
<path id="Vector_37" d="M262.22 225.68C265.81 225.68 268.72 222.77 268.72 219.18C268.72 215.59 265.81 212.68 262.22 212.68C258.63 212.68 255.72 215.59 255.72 219.18C255.72 222.77 258.63 225.68 262.22 225.68Z" fill="white"/>
<path id="Vector_38" d="M279.72 225.68C283.31 225.68 286.22 222.77 286.22 219.18C286.22 215.59 283.31 212.68 279.72 212.68C276.13 212.68 273.22 215.59 273.22 219.18C273.22 222.77 276.13 225.68 279.72 225.68Z" fill="white"/>
</g>
<path id="Vector_39" d="M1069.03 348.86H299.41C293.782 348.86 289.22 353.422 289.22 359.05V731.45C289.22 737.078 293.782 741.64 299.41 741.64H1069.03C1074.66 741.64 1079.22 737.078 1079.22 731.45V359.05C1079.22 353.422 1074.66 348.86 1069.03 348.86Z" fill="white"/>
<path id="Vector_40" opacity="0.2" d="M479.1 258.45H259.58C257.448 258.45 255.72 260.178 255.72 262.31V278.44C255.72 280.572 257.448 282.3 259.58 282.3H479.1C481.232 282.3 482.96 280.572 482.96 278.44V262.31C482.96 260.178 481.232 258.45 479.1 258.45Z" fill="#5A5773"/>
<path id="Vector_41" opacity="0.2" d="M907.6 394.45H688.08C685.948 394.45 684.22 396.178 684.22 398.31V414.44C684.22 416.572 685.948 418.3 688.08 418.3H907.6C909.732 418.3 911.46 416.572 911.46 414.44V398.31C911.46 396.178 909.732 394.45 907.6 394.45Z" fill="#38ECE1"/>
<path id="Vector_42" opacity="0.2" d="M1035.19 461.23H688.08C685.948 461.23 684.22 462.958 684.22 465.09V481.22C684.22 483.352 685.948 485.08 688.08 485.08H1035.19C1037.32 485.08 1039.05 483.352 1039.05 481.22V465.09C1039.05 462.958 1037.32 461.23 1035.19 461.23Z" fill="#38ECE1"/>
<path id="Vector_43" opacity="0.2" d="M1035.19 500.23H688.08C685.948 500.23 684.22 501.958 684.22 504.09V520.22C684.22 522.352 685.948 524.08 688.08 524.08H1035.19C1037.32 524.08 1039.05 522.352 1039.05 520.22V504.09C1039.05 501.958 1037.32 500.23 1035.19 500.23Z" fill="#38ECE1"/>
<path id="Vector_44" opacity="0.2" d="M1035.19 539.23H688.08C685.948 539.23 684.22 540.958 684.22 543.09V559.22C684.22 561.352 685.948 563.08 688.08 563.08H1035.19C1037.32 563.08 1039.05 561.352 1039.05 559.22V543.09C1039.05 540.958 1037.32 539.23 1035.19 539.23Z" fill="#38ECE1"/>
<path id="Vector_45" opacity="0.2" d="M1035.19 578.23H688.08C685.948 578.23 684.22 579.958 684.22 582.09V598.22C684.22 600.352 685.948 602.08 688.08 602.08H1035.19C1037.32 602.08 1039.05 600.352 1039.05 598.22V582.09C1039.05 579.958 1037.32 578.23 1035.19 578.23Z" fill="#38ECE1"/>
<path id="Vector_46" opacity="0.2" d="M1035.19 621.23H335.91C333.778 621.23 332.05 622.958 332.05 625.09V641.22C332.05 643.352 333.778 645.08 335.91 645.08H1035.19C1037.32 645.08 1039.05 643.352 1039.05 641.22V625.09C1039.05 622.958 1037.32 621.23 1035.19 621.23Z" fill="#38ECE1"/>
<path id="Vector_47" opacity="0.2" d="M1035.19 660.23H335.91C333.778 660.23 332.05 661.958 332.05 664.09V680.22C332.05 682.352 333.778 684.08 335.91 684.08H1035.19C1037.32 684.08 1039.05 682.352 1039.05 680.22V664.09C1039.05 661.958 1037.32 660.23 1035.19 660.23Z" fill="#38ECE1"/>
<path id="Vector_48" opacity="0.2" d="M1035.19 699.23H335.91C333.778 699.23 332.05 700.958 332.05 703.09V719.22C332.05 721.352 333.778 723.08 335.91 723.08H1035.19C1037.32 723.08 1039.05 721.352 1039.05 719.22V703.09C1039.05 700.958 1037.32 699.23 1035.19 699.23Z" fill="#38ECE1"/>
<path id="Vector_49" d="M877.3 715C877.3 715 883.23 722.75 874.56 734.46C865.89 746.17 858.75 756.05 861.64 763.35C861.64 763.35 874.71 741.61 885.36 741.35C896.01 741.09 889.01 728.07 877.3 715Z" fill="#38ECE1"/>
<path id="Vector_50" opacity="0.1" d="M877.3 715C877.816 715.749 878.224 716.567 878.51 717.43C888.9 729.63 894.43 741.02 884.45 741.3C875.15 741.57 863.99 758.2 861.32 762.39C861.404 762.73 861.511 763.064 861.64 763.39C861.64 763.39 874.71 741.65 885.36 741.39C896.01 741.13 889.01 728.07 877.3 715Z" fill="#D53A3A"/>
<path id="Vector_51" d="M888.32 724.88C888.32 727.61 888.02 729.82 887.64 729.82C887.26 729.82 886.96 727.61 886.96 724.88C886.96 722.15 887.34 723.44 887.72 723.44C888.1 723.44 888.32 722.15 888.32 724.88Z" fill="#FFD037"/>
<path id="Vector_52" d="M892.11 728.14C889.71 729.44 887.62 730.23 887.44 729.9C887.26 729.57 889.06 728.24 891.44 726.9C893.82 725.56 892.89 726.54 893.07 726.9C893.25 727.26 894.5 726.83 892.11 728.14Z" fill="#FFD037"/>
<path id="Vector_53" d="M845.98 715C845.98 715 840.05 722.75 848.71 734.46C857.37 746.17 864.53 756.05 861.64 763.35C861.64 763.35 848.56 741.61 837.92 741.35C827.28 741.09 834.27 728.07 845.98 715Z" fill="#38ECE1"/>
<path id="Vector_54" opacity="0.1" d="M845.98 715C845.458 715.747 845.047 716.565 844.76 717.43C834.38 729.63 828.85 741.02 838.83 741.3C848.13 741.57 859.28 758.2 861.95 762.39C861.87 762.73 861.766 763.064 861.64 763.39C861.64 763.39 848.56 741.65 837.92 741.39C827.28 741.13 834.27 728.07 845.98 715Z" fill="#D53A3A"/>
<path id="Vector_55" d="M834.95 724.88C834.95 727.61 835.26 729.82 835.64 729.82C836.02 729.82 836.32 727.61 836.32 724.88C836.32 722.15 835.94 723.46 835.57 723.46C835.2 723.46 834.95 722.15 834.95 724.88Z" fill="#FFD037"/>
<path id="Vector_56" d="M831.17 728.14C833.57 729.44 835.66 730.23 835.84 729.9C836.02 729.57 834.22 728.24 831.84 726.9C829.46 725.56 830.39 726.54 830.21 726.9C830.03 727.26 828.77 726.83 831.17 728.14Z" fill="#FFD037"/>
<path id="Vector_57" opacity="0.1" d="M861.64 822.66C895.882 822.66 923.64 818.402 923.64 813.15C923.64 807.898 895.882 803.64 861.64 803.64C827.398 803.64 799.64 807.898 799.64 813.15C799.64 818.402 827.398 822.66 861.64 822.66Z" fill="#38ECE1"/>
<path id="Vector_58" d="M893.57 752.9L893.27 755.32L892.86 758.74L892.68 760.17L892.27 763.59L892.09 765.02L891.67 768.43L886.93 807.33C886.5 810.8 880.83 813.51 873.93 813.51H849.31C842.46 813.51 836.8 810.8 836.38 807.33L831.62 768.46L831.21 765.05L831.03 763.62L830.61 760.2L830.44 758.77L830.02 755.35L829.72 752.93C829.49 750.93 832.56 749.31 836.43 749.31H886.85C890.72 749.28 893.79 750.93 893.57 752.9Z" fill="#65617D"/>
<path id="Vector_59" d="M893.25 755.32L892.84 758.74H830.44L830.02 755.32H893.25Z" fill="#9D9CB5"/>
<path id="Vector_60" d="M892.66 760.16L892.25 763.58H831.03L830.61 760.16H892.66Z" fill="#9D9CB5"/>
<path id="Vector_61" d="M892.07 765.01L891.65 768.43H831.62L831.21 765.01H892.07Z" fill="#9D9CB5"/>
<path id="Vector_62" opacity="0.2" d="M625.55 381.22H340.55C335.856 381.22 332.05 385.026 332.05 389.72V594.26C332.05 598.954 335.856 602.76 340.55 602.76H625.55C630.244 602.76 634.05 598.954 634.05 594.26V389.72C634.05 385.026 630.244 381.22 625.55 381.22Z" fill="#38ECE1"/>
<path id="Vector_63" d="M1273.05 627.61C1273.43 626.61 1270.61 620.89 1270.61 620.61C1270.61 620.33 1267.7 617.16 1267.7 615.39C1267.7 613.62 1263.85 609.79 1263.85 609.79C1263.85 609.79 1258.68 607.65 1258.12 602.98C1257.56 598.31 1251.93 598.23 1251.92 598.23C1251.92 598.23 1251.92 597.81 1251.92 597.16C1252.03 595.316 1251.8 593.467 1251.23 591.71C1250.57 590.421 1249.42 589.447 1248.04 589C1248.04 589 1247.47 585.36 1246.35 584.24C1245.73 583.586 1245.28 582.784 1245.05 581.91C1244.81 581.036 1244.81 580.117 1245.03 579.24C1245.6 577.48 1244.28 573 1241.56 572.34C1238.84 571.68 1235.73 570.66 1235.73 570.66L1234.98 570.79L1234.61 570.66C1233.95 570.786 1233.28 570.87 1232.61 570.91C1232.04 570.927 1231.47 570.743 1231.02 570.39C1230.08 569.39 1222.47 567.39 1221.02 567.39C1219.57 567.39 1215.57 565.52 1215.57 565.52C1215.57 565.52 1212.75 563.38 1211.57 562.44C1210.39 561.5 1208.34 558.09 1208.03 557.57V557.5C1207.69 556.706 1207.4 555.887 1207.18 555.05C1208.55 553.611 1209.73 551.993 1210.67 550.24C1210.77 550.06 1210.86 549.88 1210.95 549.69C1211.16 549.69 1211.36 549.66 1211.56 549.6L1211.81 549.5C1212.28 549.254 1212.7 548.917 1213.05 548.509C1213.39 548.101 1213.65 547.629 1213.81 547.12V547.12C1213.88 546.917 1213.94 546.71 1213.99 546.5C1213.99 546.43 1213.99 546.36 1213.99 546.29L1214.08 545.87C1214.08 545.79 1214.08 545.71 1214.08 545.63L1214.14 545.21V544.97C1214.14 544.79 1214.14 544.62 1214.21 544.44C1214.27 543.769 1214.37 543.101 1214.5 542.44V542.44C1215.06 539.91 1216.59 537.77 1217.66 535.44C1217.81 535.11 1217.96 534.77 1218.09 534.44C1218.22 534.11 1218.35 533.69 1218.46 533.31L1218.55 532.96C1218.62 532.68 1218.68 532.4 1218.74 532.12C1218.8 531.84 1218.74 531.87 1218.81 531.74C1218.87 531.36 1218.92 530.97 1218.96 530.57C1219.14 528.339 1218.8 526.096 1217.96 524.02C1217.26 522.27 1216.21 520.69 1215.5 518.94C1214.42 516.29 1214.13 513.28 1212.82 510.75C1211.75 508.697 1209.99 507.091 1207.85 506.219C1205.7 505.347 1203.32 505.266 1201.12 505.99C1199.12 506.75 1197.3 508.22 1195.23 508.88C1192.45 509.77 1189.49 509.1 1186.61 508.71C1183.73 508.32 1180.61 508.27 1178.25 510.15C1175.59 512.31 1174.87 516.37 1172.37 518.74C1171.37 519.74 1170.02 520.37 1168.91 521.29C1168.13 521.915 1167.53 522.737 1167.17 523.67L1167.11 523.86C1167.08 523.942 1167.06 524.025 1167.05 524.11C1167.03 524.202 1167.01 524.296 1167 524.39C1166.99 524.453 1166.99 524.517 1167 524.58C1166.98 524.746 1166.98 524.914 1167 525.08V525.08C1167.01 525.238 1167.04 525.395 1167.07 525.55V525.68C1167.07 525.81 1167.14 525.94 1167.19 526.07C1167.24 526.2 1167.19 526.12 1167.19 526.14C1167.19 526.16 1167.3 526.43 1167.36 526.57L1167.45 526.78C1167.45 526.84 1167.45 526.9 1167.53 526.95C1167.89 527.644 1168.18 528.371 1168.4 529.12C1168.52 529.595 1168.48 530.093 1168.31 530.55C1168.07 531.07 1167.73 531.536 1167.31 531.92C1165.44 533.863 1163.99 536.176 1163.07 538.71C1162.96 539.003 1162.86 539.293 1162.77 539.58H1162.9C1163.17 539.657 1163.44 539.714 1163.72 539.75C1163.88 539.759 1164.03 539.759 1164.19 539.75C1164.83 539.788 1165.48 539.741 1166.11 539.61L1166.59 539.49C1167.24 539.32 1167.88 539.089 1168.49 538.8C1168.49 538.99 1168.49 539.18 1168.49 539.37C1168.49 539.56 1168.49 539.58 1168.49 539.69C1168.5 543.817 1169.65 547.86 1171.83 551.365C1174.01 554.87 1177.12 557.697 1180.82 559.53C1180.82 559.73 1180.87 559.93 1180.9 560.13L1180.96 560.64L1180.71 560.4C1180.71 560.4 1179.02 559.56 1177.42 561.98C1176.25 563.568 1174.65 564.797 1172.82 565.53C1172.82 565.53 1155.72 568.23 1155.06 570.47L1147.06 570.94C1147.06 570.94 1144.24 571.31 1143.96 577.19C1143.68 583.07 1142.18 583.62 1142.18 583.62C1142.18 583.62 1138.89 589.41 1139.18 592.39C1139.22 593.299 1139 594.2 1138.55 594.991C1138.1 595.783 1137.44 596.433 1136.64 596.87L1136.27 602.19C1136.27 602.19 1133.17 601.72 1132.27 605.36C1131.91 607.287 1131.11 609.105 1129.93 610.67C1129.93 610.67 1124.76 614.97 1124.48 618.6L1121.28 620.6C1121.28 620.6 1113.86 618.92 1112.17 615.94C1112.17 615.94 1111.97 615.74 1111.65 615.45V615.38C1110.54 614.38 1108.19 612.14 1108.55 612.65C1108.77 613.118 1108.82 613.648 1108.7 614.15L1108.15 613.54L1106.67 611.9C1106.67 611.9 1094.67 600.66 1087.67 599.77C1087.58 599.59 1087.12 597.77 1085.92 598.92C1084.93 599.833 1084.13 600.94 1083.59 602.174C1083.04 603.408 1082.76 604.741 1082.75 606.09C1082.74 607.439 1083.01 608.774 1083.55 610.013C1084.08 611.252 1084.87 612.368 1085.85 613.29L1097.09 623.78L1097.38 623.99L1099.79 627.09C1099.38 628.09 1099.04 629.01 1098.79 629.87V629.96L1098.61 630.5C1098.59 630.559 1098.57 630.619 1098.56 630.68C1098.5 630.86 1098.45 631.03 1098.4 631.2L1098.31 631.5C1098.31 631.56 1098.31 631.62 1098.31 631.68C1098.04 632.62 1097.87 633.34 1097.79 633.74L1097.16 633.54L1097.77 633.81V633.9C1097.77 634.03 1097.77 634.1 1097.77 634.1L1098.35 634.35C1101.64 635.78 1118.06 642.99 1118.9 644.08C1119.74 645.17 1126.04 648.84 1131.68 645.85C1137.32 642.86 1138.53 638.3 1138.53 638.3C1138.53 638.3 1143.98 630.74 1144.17 629.62C1144.36 628.5 1148.58 627.2 1148.58 627.2C1148.58 627.2 1148.96 639.69 1146.8 644.27C1144.64 648.85 1140.6 669.08 1140.6 669.08C1140.87 669.043 1141.13 669.043 1141.4 669.08L1141.16 670.25C1141.49 670.188 1141.83 670.188 1142.16 670.25C1141.86 672.55 1140.16 683.25 1140.16 683.25C1140.16 683.25 1139.6 688.1 1138.66 689.78C1137.72 691.46 1137.66 700.23 1137.66 700.23L1136.15 706.57C1136.15 706.57 1136.35 707.01 1136.72 707.66C1137.73 709.818 1139.21 711.726 1141.04 713.25C1140.92 714.247 1140.66 715.222 1140.28 716.15C1139.7 717.568 1139.44 719.099 1139.53 720.63C1139.53 720.63 1137.94 727.81 1138.12 729.86C1138.3 731.91 1137.12 736.95 1137.12 736.95L1135.43 753.18C1135.43 753.18 1134.31 767.26 1134.87 771.09C1135.14 774.094 1135.01 777.12 1134.49 780.09C1134.49 780.09 1135.62 791.19 1135.34 792.4C1135.06 793.61 1133.65 798.84 1134.49 801.73C1135.33 804.62 1134.87 812.55 1134.87 812.55C1134.87 812.55 1135.43 823 1136.09 826.36C1136.44 828.903 1136.38 831.487 1135.9 834.01C1135.9 834.01 1135.24 841.19 1134.96 841.19C1134.68 841.19 1132.24 846.13 1137.21 850.98C1142.18 855.83 1139.1 855.08 1139.1 855.08C1139.1 855.08 1135.1 853.08 1135.62 857.14C1136.06 860.95 1136.68 859.96 1136.74 859.85L1135.8 862.92L1136.46 863.01L1135.92 863.66C1135.35 864.387 1134.72 865.057 1134.02 865.66C1133.29 866.375 1132.85 867.339 1132.8 868.36C1132.8 868.36 1125.85 875.92 1119.37 879.74C1115.96 881.74 1113.02 883.45 1111.74 884.87C1110.58 886.13 1110.74 887.15 1113.17 887.95C1118.24 889.63 1127.17 890.47 1133.55 888.32C1137.37 887.056 1140.81 884.843 1143.55 881.89C1143.55 881.89 1147.55 879.83 1151.55 880.58C1155.55 881.33 1163.39 876.2 1163.39 876.2L1163.24 874.88L1162.83 871.06C1162.57 870.74 1162.37 870.369 1162.26 869.969C1162.14 869.57 1162.11 869.151 1162.17 868.74C1162.22 867.61 1162.11 866.479 1161.84 865.38C1161.77 865.01 1161.7 864.64 1161.63 864.3L1162.35 864.16C1162.35 864.16 1161.42 859.41 1163.11 858.47C1164.8 857.53 1164.32 845.32 1164.32 845.32C1164.32 845.32 1162.17 842.52 1161.04 842.06C1159.91 841.6 1160.94 835.8 1161.14 835.06C1161.34 834.32 1162.83 819.85 1162.83 819.85C1162.83 819.85 1162.26 815.29 1163.01 813.33C1163.76 811.37 1162.07 803.81 1162.07 803.81C1161.91 803.464 1161.88 803.076 1161.96 802.706C1162.05 802.336 1162.25 802.004 1162.54 801.76C1163.54 800.64 1163.2 790.66 1163.2 790.66C1163.2 790.66 1163.11 785.66 1163.11 784.31C1163.11 782.96 1164.23 778.25 1165.27 776.67C1166.31 775.09 1165.64 770.14 1165.64 770.14L1165.7 769.77C1165.7 769.63 1165.7 769.45 1165.78 769.24L1165.86 768.74C1166.32 766.007 1166.93 763.303 1167.7 760.64C1168.92 756.73 1170.33 749.83 1170.33 749.83L1179.06 727.05L1179.16 726.78C1179.16 726.78 1183.16 734.24 1183.16 741.15C1183.16 741.15 1184.16 749.45 1183.92 751.69C1183.68 753.93 1184.57 764.46 1184.57 764.46C1184.57 764.46 1185.79 779.57 1185.79 780.22C1185.79 780.87 1187.3 792.53 1188.24 794.31C1189.18 796.09 1187.3 801.49 1186.73 802.05C1186.16 802.61 1186.92 816.32 1186.92 816.32C1186.92 816.32 1185.51 827.14 1185.23 829.38C1184.95 831.62 1183.82 840.2 1184.76 843.56C1185.7 846.92 1185.32 847.38 1185.32 847.38C1185.32 847.38 1188.71 850.84 1186.73 851.12C1186.01 851.277 1185.33 851.586 1184.75 852.025C1184.16 852.465 1183.67 853.025 1183.31 853.669C1182.95 854.312 1182.74 855.025 1182.68 855.758C1182.62 856.491 1182.72 857.228 1182.97 857.92C1184.15 861.334 1185.53 864.673 1187.11 867.92L1188.67 867.59V868.7L1188.78 874.26C1188.78 874.26 1189.44 879.57 1189.06 880.79C1188.79 881.67 1188.41 885.85 1188.23 888.04C1188.16 888.84 1188.12 889.37 1188.12 889.37C1188.12 889.37 1188.12 894.31 1198.55 892.82C1208.98 891.33 1210.85 887.22 1210.85 887.22L1210.93 886.71C1211.08 885.77 1211.42 883.77 1211.7 882.65C1212.07 881.16 1208.7 874.44 1208.7 874.44C1208.7 874.44 1208.14 869.87 1207.2 868.85C1206.81 868.246 1206.55 867.564 1206.44 866.85C1206.36 866.47 1206.28 866.08 1206.22 865.7C1206.46 865.728 1206.69 865.768 1206.92 865.82C1206.92 865.82 1206.35 862.56 1208.52 861.53C1210.69 860.5 1210.11 858.36 1209.83 857.43C1209.55 856.5 1210.67 851.27 1210.67 851.27C1210.51 850.749 1210.5 850.194 1210.63 849.666C1210.76 849.137 1211.03 848.655 1211.42 848.27C1212.74 846.96 1213.77 837.82 1213.77 837.82L1213.96 802.56C1213.96 802.56 1214.62 796.31 1213.87 793.79C1213.12 791.27 1212.37 786.42 1213.4 785.11C1214.43 783.8 1213.49 777.75 1213.49 777.75C1213.49 777.75 1213.49 764.97 1214.9 761.75C1216.31 758.53 1215.84 738.52 1215.84 738.52L1216.21 725.37C1216.21 725.37 1219.28 722.47 1218.56 707.37C1221.83 707.16 1225.56 707.04 1226.08 707.5C1227.08 708.34 1233.78 712.63 1237.73 709.92C1239.36 708.8 1240.93 707.588 1242.42 706.29L1240.76 678.29C1241.76 679.85 1242.42 680.88 1242.42 680.88C1242.42 676.97 1253.51 664.28 1253.51 664.28C1253.51 664.28 1263.84 650.94 1266.09 649.36C1268.34 647.78 1272.76 639.36 1272.76 639.36C1273.41 637.76 1274.17 636.204 1275.02 634.7C1276.06 633.11 1272.68 628.63 1273.05 627.61ZM1248.82 637.4C1246 637.68 1240.08 644.12 1239.99 645.52C1239.78 646.443 1239.36 647.302 1238.74 648.02C1238.74 647.46 1238.65 646.89 1238.6 646.31C1237.94 638.06 1237.22 628.02 1237.6 627.05C1238.16 625.37 1237.97 617.81 1237.97 617.81L1238.08 617.66C1239.97 623.52 1245.85 630.42 1245.85 630.42C1245.85 630.42 1246.85 633.42 1248.11 633.49C1249.37 633.56 1248.82 637.4 1248.82 637.4V637.4Z" fill="url(#paint1_linear)"/>
<path id="Vector_64" d="M1098.22 635.27C1098.22 635.27 1101.65 617.27 1112.66 617.27L1120.72 633.84L1115.35 637.54C1115.35 637.54 1103.68 637.86 1098.22 635.27Z" fill="#65617D"/>
<path id="Vector_65" opacity="0.1" d="M1120.72 633.79L1115.35 637.49C1115.35 637.49 1107.14 637.75 1101.27 636.31C1100.22 636.078 1099.2 635.743 1098.22 635.31L1098.28 635.02V634.96C1098.78 632.704 1099.48 630.496 1100.36 628.36C1100.7 627.55 1101.08 626.72 1101.5 625.89C1103.11 622.79 1105.38 619.74 1108.5 618.24C1109.64 617.662 1110.89 617.322 1112.17 617.24H1112.66L1112.84 617.61L1115.56 623.21L1120.72 633.79Z" fill="#D53A3A"/>
<path id="Vector_66" d="M1212.18 708.4C1212.18 708.4 1223.75 707.29 1224.77 708.13C1225.79 708.97 1232.36 713.22 1236.24 710.53C1240.12 707.84 1237.54 698.53 1237.54 698.13C1237.54 697.73 1237.17 684.52 1237.17 684.52L1230.23 675.17L1221.53 658.79L1203.75 657.03L1204.21 683.03L1204.12 696.36L1212.18 708.4Z" fill="#65617D"/>
<path id="Vector_67" opacity="0.1" d="M1212.18 708.4C1212.18 708.4 1223.75 707.29 1224.77 708.13C1225.79 708.97 1232.36 713.22 1236.24 710.53C1240.12 707.84 1237.54 698.53 1237.54 698.13C1237.54 697.73 1237.17 684.52 1237.17 684.52L1230.23 675.17L1221.53 658.79L1203.75 657.03L1204.21 683.03L1204.12 696.36L1212.18 708.4Z" fill="#D53A3A"/>
<path id="Vector_68" d="M1110.35 616.76C1110.35 616.76 1109.42 628.05 1102.35 628.24C1102.35 628.24 1100.35 627.04 1097.67 625.03C1091.49 620.4 1081.67 611.51 1084.39 603.24C1088.28 591.39 1107.16 613.24 1107.16 613.24L1108.62 614.87L1110.35 616.76Z" fill="#FBBEBE"/>
<path id="Vector_69" opacity="0.1" d="M1110.35 616.76C1110.35 616.76 1109.42 628.05 1102.35 628.24C1102.35 628.24 1100.35 627.04 1097.67 625.03L1097.07 624.26C1098.27 624.871 1099.59 625.213 1100.93 625.26C1101.99 625.301 1103.03 625.02 1103.92 624.454C1104.82 623.888 1105.52 623.063 1105.93 622.09C1106.69 620.636 1107.36 619.136 1107.93 617.6C1108.26 616.703 1108.5 615.775 1108.64 614.83L1110.35 616.76Z" fill="#D53A3A"/>
<path id="Vector_70" d="M1107.29 637.22L1105.71 635.22L1100.38 628.36L1097.67 624.85C1098.86 625.462 1100.18 625.804 1101.52 625.85C1102.58 625.896 1103.62 625.616 1104.52 625.05C1105.41 624.483 1106.11 623.656 1106.52 622.68C1107.26 621.229 1107.91 619.732 1108.47 618.2C1109.35 615.7 1109.33 614.42 1109.02 613.98C1108.71 613.54 1111.02 615.66 1112.08 616.7L1112.59 617.18L1112.78 617.56L1115.57 622.96C1115.58 623.037 1115.58 623.113 1115.57 623.19C1115.77 624.89 1116.67 635.68 1107.29 637.22Z" fill="#E7EFFD"/>
<path id="Vector_71" d="M1162.75 875.46C1162.75 875.46 1154.97 880.56 1151.08 879.81C1148.39 879.471 1145.65 879.923 1143.21 881.11C1140.54 884.038 1137.16 886.237 1133.4 887.5C1127.1 889.63 1118.31 888.79 1113.31 887.13C1110.95 886.34 1110.76 885.32 1111.9 884.07C1113.04 882.82 1116.06 880.98 1119.42 878.98C1125.81 875.18 1132.66 867.69 1132.66 867.69C1132.7 866.673 1133.13 865.711 1133.86 865C1134.55 864.397 1135.17 863.727 1135.73 863C1136.73 861.83 1137.66 860.6 1137.66 860.6L1160.57 861.46C1160.57 861.46 1160.96 863.11 1161.27 864.8C1161.53 865.89 1161.64 867.011 1161.59 868.13C1161.53 868.539 1161.56 868.955 1161.67 869.353C1161.79 869.75 1161.98 870.12 1162.24 870.44L1162.65 874.22L1162.75 875.46Z" fill="#65617D"/>
<path id="Vector_72" d="M1210.57 881.88C1210.3 882.99 1209.96 884.97 1209.81 885.88C1209.81 886.19 1209.74 886.39 1209.74 886.39C1209.74 886.39 1207.89 890.46 1197.61 891.94C1187.33 893.42 1187.34 888.52 1187.34 888.52L1187.44 887.19C1187.62 885.03 1187.99 880.88 1188.26 880C1188.63 878.8 1187.99 873.52 1187.99 873.52L1187.88 868L1187.8 864.17L1204.8 862.41C1204.91 863.683 1205.09 864.948 1205.35 866.2C1205.45 866.914 1205.71 867.597 1206.1 868.2C1207.02 869.2 1207.58 873.75 1207.58 873.75C1207.58 873.75 1210.97 880.4 1210.57 881.88Z" fill="#65617D"/>
<path id="Vector_73" opacity="0.1" d="M1160.57 861.46C1160.57 861.46 1160.96 863.11 1161.27 864.8C1158.8 865.25 1148 867.12 1145.27 865.8C1142.21 864.32 1135.64 863.49 1135.64 863.49L1135.75 863.11C1136.75 861.94 1137.68 860.71 1137.68 860.71L1160.57 861.46Z" fill="#D53A3A"/>
<path id="Vector_74" opacity="0.1" d="M1205.41 866.23C1201.1 865.5 1191.63 867.23 1187.91 868.03L1187.83 864.2L1204.83 862.44C1204.95 863.714 1205.14 864.979 1205.41 866.23V866.23Z" fill="#D53A3A"/>
<path id="Vector_75" d="M1215.04 725.9L1214.68 738.9C1214.68 738.9 1215.14 758.8 1213.75 761.9C1212.36 765 1212.36 777.73 1212.36 777.73C1212.36 777.73 1213.29 783.73 1212.27 785.04C1211.25 786.35 1211.99 791.15 1212.73 793.65C1213.47 796.15 1212.82 802.35 1212.82 802.35L1212.64 837.35C1212.64 837.35 1211.64 846.42 1210.32 847.72C1209.94 848.109 1209.67 848.592 1209.54 849.119C1209.41 849.647 1209.43 850.199 1209.58 850.72C1209.58 850.72 1208.47 855.9 1208.75 856.83C1209.03 857.76 1209.58 859.88 1207.46 860.9C1205.34 861.92 1205.88 865.16 1205.88 865.16C1200.79 863.95 1186.35 867.16 1186.35 867.16C1184.79 863.942 1183.43 860.633 1182.27 857.25C1182.02 856.564 1181.92 855.833 1181.98 855.105C1182.03 854.377 1182.24 853.67 1182.59 853.03C1182.95 852.39 1183.43 851.833 1184.01 851.395C1184.6 850.957 1185.27 850.648 1185.98 850.49C1187.92 850.22 1184.59 846.79 1184.59 846.79C1184.59 846.79 1184.96 846.33 1184.03 842.99C1183.1 839.65 1184.22 831.14 1184.5 828.92C1184.78 826.7 1186.16 815.92 1186.16 815.92C1186.16 815.92 1185.42 802.31 1185.98 801.76C1186.54 801.21 1188.38 795.83 1187.46 794.08C1186.54 792.33 1185.05 780.75 1185.05 780.08C1185.05 779.41 1183.85 764.43 1183.85 764.43C1183.85 764.43 1182.74 753.97 1183.02 751.75C1183.3 749.53 1182.27 741.29 1182.27 741.29C1182.27 734.44 1178.27 727.03 1178.27 727.03L1178.17 727.3L1169.57 750.06C1169.57 750.06 1168.18 756.91 1166.98 760.8C1166.22 763.429 1165.62 766.101 1165.17 768.8L1165.09 769.3L1165.01 769.82L1164.95 770.19C1164.95 770.19 1165.59 775.09 1164.57 776.67C1163.43 779.06 1162.72 781.627 1162.45 784.26C1162.45 785.56 1162.54 790.56 1162.54 790.56C1162.54 790.56 1162.91 800.46 1161.89 801.56C1161.61 801.801 1161.41 802.125 1161.33 802.484C1161.25 802.844 1161.28 803.221 1161.43 803.56C1161.43 803.56 1163.09 811.06 1162.35 813C1161.61 814.94 1162.17 819.48 1162.17 819.48C1162.17 819.48 1160.69 833.83 1160.5 834.57C1160.31 835.31 1159.3 841.05 1160.41 841.51C1161.52 841.97 1163.65 844.75 1163.65 844.75C1163.65 844.75 1164.11 856.88 1162.45 857.8C1160.79 858.72 1161.7 863.45 1161.7 863.45C1161.7 863.45 1148.28 866.04 1145.23 864.56C1142.18 863.08 1135.6 862.25 1135.6 862.25L1136.52 859.25C1136.46 859.36 1135.85 860.35 1135.42 856.56C1134.95 852.56 1138.84 854.56 1138.84 854.56C1138.84 854.56 1141.9 855.3 1136.99 850.49C1132.08 845.68 1134.49 840.77 1134.77 840.77C1135.05 840.77 1135.69 833.64 1135.69 833.64C1136.16 831.137 1136.23 828.574 1135.88 826.05C1135.23 822.72 1134.68 812.35 1134.68 812.35C1134.68 812.35 1135.14 804.48 1134.3 801.61C1133.46 798.74 1134.86 793.61 1135.14 792.35C1135.42 791.09 1134.3 780.13 1134.3 780.13C1134.82 777.16 1134.95 774.134 1134.68 771.13C1134.12 767.33 1135.23 753.35 1135.23 753.35L1136.9 737.25C1136.9 737.25 1138.1 732.25 1137.9 730.25C1137.7 728.25 1139.29 721.09 1139.29 721.09C1139.2 719.57 1139.45 718.049 1140.03 716.64C1140.96 714.79 1141.33 708.64 1141.33 708.64L1150.22 688.28L1154.57 670.28L1213.35 669.72C1213.35 669.72 1213.56 671.28 1213.92 674.11C1214.28 676.94 1214.78 681.11 1215.34 686.3C1215.85 691 1216.41 696.53 1216.96 702.68C1218.75 722.38 1215.04 725.9 1215.04 725.9Z" fill="#3F3D56"/>
<path id="Vector_76" d="M1209.57 563.81L1195.88 578.46C1195.88 578.46 1178.3 571.46 1180.15 569.01C1180.86 568.08 1180.75 565.14 1180.34 561.9C1179.69 556.77 1178.34 550.9 1178.34 550.9C1178.34 550.9 1209.07 545.9 1206.47 551.08C1205.64 553.035 1205.57 555.228 1206.28 557.23C1207.02 559.584 1208.13 561.805 1209.57 563.81V563.81Z" fill="#FBBEBE"/>
<path id="Vector_77" opacity="0.1" d="M1206.43 551.03C1205.49 552.93 1205.04 553.11 1205.63 555.15C1201.63 559.46 1196.5 564.15 1190.14 564.15C1186.74 564.154 1183.38 563.366 1180.34 561.85C1179.69 556.72 1178.34 550.85 1178.34 550.85C1178.34 550.85 1209.03 545.85 1206.43 551.03Z" fill="#D53A3A"/>
<path id="Vector_78" d="M1212.18 541.59C1212.18 547.434 1209.86 553.039 1205.73 557.171C1201.59 561.303 1195.99 563.625 1190.14 563.625C1184.3 563.625 1178.7 561.303 1174.56 557.171C1170.43 553.039 1168.11 547.434 1168.11 541.59C1168.11 541.48 1168.11 541.38 1168.11 541.27C1168.13 538.377 1168.72 535.516 1169.85 532.852C1170.97 530.187 1172.62 527.77 1174.68 525.739C1176.74 523.708 1179.18 522.103 1181.86 521.016C1184.54 519.928 1187.41 519.379 1190.3 519.4C1193.19 519.421 1196.05 520.012 1198.72 521.138C1201.38 522.265 1203.8 523.905 1205.83 525.966C1207.86 528.026 1209.47 530.466 1210.55 533.147C1211.64 535.828 1212.19 538.697 1212.17 541.59H1212.18Z" fill="#FBBEBE"/>
<path id="Vector_79" opacity="0.1" d="M1215.37 686.94C1212.45 686.94 1202.73 687.04 1191.87 687.22H1191.74L1188.15 687.28H1188.04C1175.16 687.48 1162.47 684.97 1157.37 685.44C1146.54 686.44 1161.26 675.44 1161.26 675.44C1169.33 677.394 1177.63 678.232 1185.93 677.93L1189.05 677.77C1198.89 677.21 1208.78 676.29 1213.95 674.77C1214.31 677.61 1214.81 681.77 1215.37 686.94Z" fill="#D53A3A"/>
<path id="Vector_80" d="M1215.37 686.38C1212.45 686.38 1202.73 686.49 1191.87 686.66H1191.74L1188.15 686.72H1188.04C1175.16 686.93 1162.47 684.41 1157.37 684.89C1146.54 685.89 1161.26 674.89 1161.26 674.89C1169.33 676.85 1177.63 677.687 1185.93 677.38L1189.05 677.22C1198.89 676.67 1208.78 675.74 1213.95 674.22C1214.31 677.05 1214.81 681.21 1215.37 686.38Z" fill="#5F5D7E"/>
<path id="Vector_81" opacity="0.1" d="M1184.22 569.92L1167.22 577.92L1154.07 679.56C1154.07 679.56 1161.85 676.04 1166.29 678.26C1170.73 680.48 1184.43 678.45 1184.43 678.45C1184.43 678.45 1194.43 677.89 1195.91 679.01C1197.39 680.13 1214.8 674.38 1214.8 674.38C1214.8 674.38 1217.95 667.38 1215.54 666.23C1213.13 665.08 1216.28 654.23 1216.28 654.23L1214.8 580.91L1211.8 571.47L1203.8 566.65L1195.66 573.13L1191.77 573.69L1184.22 569.92Z" fill="#D53A3A"/>
<path id="Vector_82" d="M1184.22 568.81L1167.22 576.81L1154.04 678.46C1154.04 678.46 1161.82 674.94 1166.26 677.16C1170.7 679.38 1184.4 677.35 1184.4 677.35C1184.4 677.35 1194.4 676.79 1195.88 677.9C1197.36 679.01 1214.77 673.28 1214.77 673.28C1214.77 673.28 1217.92 666.28 1215.51 665.13C1213.1 663.98 1216.25 653.13 1216.25 653.13L1214.77 579.81L1211.77 570.37L1203.77 565.55L1195.63 572.03L1191.74 572.59L1184.22 568.81Z" fill="#E7EFFD"/>
<path id="Vector_83" opacity="0.1" d="M1183.94 573.53C1183.94 573.53 1188.85 579.36 1188.76 580.53C1188.67 581.7 1188.48 584.61 1188.48 584.61L1184.78 592.1C1184.78 592.1 1182.78 601.45 1182.78 603.4C1182.78 605.35 1179.54 622.19 1179.54 622.19L1175.57 648.14L1170.66 682.14L1175.66 690.75L1181.59 685.75L1189.46 625.21L1191.12 613.27C1191.12 613.27 1192.88 591.79 1192.88 589.57C1192.69 586.871 1192.36 584.183 1191.88 581.52C1191.88 581.52 1193.09 575.96 1198.09 574.67C1203.09 573.38 1197.71 574.39 1197.71 574.39L1194.85 572.08L1192.35 573.08C1192.35 573.08 1185.42 570.94 1183.94 573.53Z" fill="#D53A3A"/>
<path id="Vector_84" d="M1183.39 572.97C1183.39 572.97 1188.29 578.8 1188.2 579.97C1188.11 581.14 1187.92 584.04 1187.92 584.04L1184.22 591.54C1184.22 591.54 1182.22 600.89 1182.22 602.83C1182.22 604.77 1178.98 621.62 1178.98 621.62L1175.1 647.54L1170.19 681.54L1175.19 690.15L1181.11 685.15L1188.98 624.61L1190.65 612.67C1190.65 612.67 1192.41 591.19 1192.41 588.97C1192.22 586.267 1191.89 583.577 1191.41 580.91C1191.41 580.91 1192.61 575.36 1197.61 574.06C1202.61 572.76 1197.24 573.79 1197.24 573.79L1194.37 571.47L1191.87 572.47C1191.87 572.47 1184.87 570.38 1183.39 572.97Z" fill="#38ECE1"/>
<path id="Vector_85" opacity="0.1" d="M1180.15 563.25C1180.15 563.25 1179.41 563.81 1179.22 567.51C1179.03 571.21 1176.44 579.51 1176.44 579.51C1176.44 579.51 1186.07 572.85 1190.88 573.59L1180.15 563.25Z" fill="#D53A3A"/>
<path id="Vector_86" d="M1180.15 562.14C1180.15 562.14 1179.41 562.7 1179.22 566.4C1179.03 570.1 1176.44 578.4 1176.44 578.4C1176.44 578.4 1186.07 571.74 1190.88 572.48L1180.15 562.14Z" fill="#E7EFFD"/>
<path id="Vector_87" opacity="0.1" d="M1206.44 560.29L1191.26 573.62C1191.26 573.62 1204.03 581.21 1205.7 583.06C1207.37 584.91 1209.03 564.92 1209.03 564.92L1206.44 560.29Z" fill="#D53A3A"/>
<path id="Vector_88" d="M1206.99 559.18L1191.81 572.51C1191.81 572.51 1204.59 580.1 1206.25 581.95C1207.91 583.8 1209.58 563.81 1209.58 563.81L1206.99 559.18Z" fill="#E7EFFD"/>
<path id="Vector_89" opacity="0.1" d="M1180.7 563.25C1180.7 563.25 1179.04 562.42 1177.46 564.83C1176.31 566.399 1174.74 567.615 1172.93 568.34C1172.93 568.34 1156.08 571.03 1155.43 573.25L1147.56 573.71C1147.56 573.71 1144.78 574.08 1144.56 579.92C1144.34 585.76 1142.8 586.3 1142.8 586.3C1142.8 586.3 1139.56 592.04 1139.8 595C1139.84 595.9 1139.62 596.793 1139.18 597.579C1138.74 598.364 1138.09 599.012 1137.3 599.45L1148.87 629.53C1148.87 629.53 1149.24 641.94 1147.11 646.47C1144.98 651 1141 671.1 1141 671.1C1141 671.1 1142.67 670.73 1142.57 671.84C1142.47 672.95 1140.57 685.08 1140.57 685.08C1140.57 685.08 1140.01 689.89 1139.09 691.56C1138.17 693.23 1138.09 701.92 1138.09 701.92L1136.61 708.22C1136.61 708.22 1140.12 716.09 1145.49 714.98C1150.86 713.87 1160.57 692.85 1160.57 692.85L1166.77 670.17L1171.59 647.77L1172.98 632.59L1175.2 598.98L1178.44 576.77C1178.44 576.77 1182 564.83 1180.7 563.25Z" fill="#D53A3A"/>
<path id="Vector_90" d="M1180.15 562.14C1180.15 562.14 1178.48 561.31 1176.91 563.72C1175.75 565.289 1174.18 566.504 1172.37 567.23C1172.37 567.23 1155.52 569.92 1154.87 572.14L1147.01 572.6C1147.01 572.6 1144.23 572.97 1143.95 578.8C1143.67 584.63 1142.19 585.19 1142.19 585.19C1142.19 585.19 1138.95 590.93 1139.19 593.89C1139.23 594.791 1139.01 595.684 1138.57 596.47C1138.13 597.257 1137.48 597.904 1136.69 598.34L1148.3 628.46C1148.3 628.46 1148.67 640.87 1146.54 645.4C1144.41 649.93 1140.43 670.03 1140.43 670.03C1140.43 670.03 1142.1 669.66 1142.01 670.77C1141.92 671.88 1140.01 684 1140.01 684C1140.01 684 1139.46 688.82 1138.53 690.48C1137.6 692.14 1137.53 700.85 1137.53 700.85L1136.05 707.15C1136.05 707.15 1139.57 715.02 1144.94 713.9C1150.31 712.78 1160.03 691.78 1160.03 691.78L1166.23 669.1L1171.04 646.7L1172.37 631.46L1174.59 597.85L1177.83 575.64C1177.83 575.64 1181.44 563.72 1180.15 562.14Z" fill="#65617D"/>
<path id="Vector_91" opacity="0.1" d="M1120.72 633.79L1115.35 637.49C1115.35 637.49 1107.14 637.75 1101.27 636.31L1098.27 634.98L1097.67 634.72L1098.29 634.92C1100.67 635.769 1103.26 635.86 1105.7 635.18C1113.3 632.62 1112.46 620.08 1112.16 617.24C1112.16 616.95 1112.11 616.77 1112.1 616.7V616.77C1112.21 616.94 1112.32 617.104 1112.45 617.26L1112.79 617.62L1115.57 622.96C1115.58 623.037 1115.58 623.113 1115.57 623.19L1120.72 633.79Z" fill="#D53A3A"/>
<path id="Vector_92" d="M1139.32 597.6L1136.73 598.34L1136.36 603.61C1136.36 603.61 1133.36 603.15 1132.47 606.76C1132.11 608.674 1131.32 610.48 1130.16 612.04C1130.16 612.04 1125.07 616.3 1124.79 619.91L1121.64 621.85C1121.64 621.85 1114.33 620.18 1112.64 617.22C1112.64 617.22 1115.98 641.1 1098.2 635.22C1098.2 635.22 1118.1 643.92 1119.03 645.13C1119.96 646.34 1126.03 649.85 1131.62 646.89C1137.21 643.93 1138.38 639.39 1138.38 639.39C1138.38 639.39 1143.75 631.89 1143.93 630.78C1144.11 629.67 1148.28 628.37 1148.28 628.37L1156.28 609.12L1139.32 597.6Z" fill="#65617D"/>
<path id="Vector_93" opacity="0.1" d="M1204.31 571.4L1206.99 559.18C1206.99 559.18 1208.2 563.18 1209.4 564.09L1213.4 567.09C1213.4 567.09 1217.4 568.94 1218.77 568.94C1220.14 568.94 1227.66 570.94 1228.58 571.94C1229.5 572.94 1233.21 572.22 1233.21 572.22C1233.21 572.22 1236.26 573.22 1238.95 573.89C1241.64 574.56 1242.95 578.98 1242.37 580.74C1242.15 581.615 1242.15 582.533 1242.38 583.407C1242.6 584.282 1243.05 585.084 1243.67 585.74C1244.78 586.85 1245.34 590.46 1245.34 590.46C1246.7 590.904 1247.83 591.867 1248.48 593.14C1249.41 595.14 1249.13 599.62 1249.13 599.62L1235.34 619.06C1235.34 619.06 1235.52 626.56 1234.97 628.23C1234.42 629.9 1236.91 658.23 1236.91 658.23L1239.78 706.92C1238.31 708.212 1236.76 709.417 1235.15 710.53C1234.32 710.9 1233.49 693.31 1233.49 692.67C1233.49 692.03 1212.1 660.67 1212.1 660.67C1212.1 660.67 1209.23 656.04 1209.23 655.02C1209.23 654 1206.55 644.65 1206.55 644.65L1202.48 626.65L1204.31 571.4Z" fill="#D53A3A"/>
<path id="Vector_94" d="M1250.26 598.57C1250.26 599.21 1250.26 599.63 1250.26 599.63L1236.48 619.05C1236.48 619.05 1236.67 626.55 1236.11 628.22C1235.79 629.22 1236.49 639.15 1237.11 647.33C1237.58 653.23 1238.01 658.21 1238.01 658.21L1239.23 678.86L1240.88 706.86C1239.41 708.152 1237.86 709.357 1236.25 710.47C1235.42 710.84 1234.59 693.25 1234.59 692.6C1234.59 691.95 1213.2 660.6 1213.2 660.6C1213.2 660.6 1210.33 655.97 1210.33 654.95C1210.33 653.93 1207.65 644.58 1207.65 644.58L1203.58 626.58L1205.43 571.41L1207 559.19C1207 559.19 1209.32 563.19 1210.52 564.09L1214.52 567.15C1214.52 567.15 1218.52 569 1219.89 569C1221.26 569 1228.78 571 1229.7 572C1230.62 573 1234.33 572.28 1234.33 572.28C1234.33 572.28 1237.39 573.28 1240.07 573.95C1242.75 574.62 1244.07 579.04 1243.49 580.8C1243.27 581.675 1243.27 582.593 1243.5 583.467C1243.73 584.341 1244.17 585.144 1244.79 585.8C1245.9 586.91 1246.46 590.52 1246.46 590.52C1247.82 590.964 1248.95 591.927 1249.6 593.2C1250.14 594.935 1250.37 596.755 1250.26 598.57V598.57Z" fill="#65617D"/>
<path id="Vector_95" opacity="0.1" d="M1137.1 845.22C1137.56 845.22 1157 845.96 1156.63 849.11C1156.26 852.26 1137.1 845.22 1137.1 845.22Z" fill="#D53A3A"/>
<path id="Vector_96" opacity="0.1" d="M1141.45 850.46C1141.45 850.46 1154.5 852.59 1151.08 854.53C1147.66 856.47 1141.45 850.46 1141.45 850.46Z" fill="#D53A3A"/>
<path id="Vector_97" opacity="0.1" d="M1189.96 843.19C1189.96 843.19 1211.62 845.04 1208.38 847.44C1205.14 849.84 1197.46 850.22 1197.09 850.31C1196.72 850.4 1189.96 843.19 1189.96 843.19Z" fill="#D53A3A"/>
<path id="Vector_98" opacity="0.1" d="M1187.37 852.72C1187.37 852.72 1199.37 854.72 1199.77 857.07C1200.17 859.42 1187.37 852.72 1187.37 852.72Z" fill="#D53A3A"/>
<path id="Vector_99" opacity="0.1" d="M1194.03 796.99C1194.03 796.99 1205.03 799.58 1205.7 801.34L1194.03 796.99Z" fill="#D53A3A"/>
<path id="Vector_100" opacity="0.1" d="M1151.57 804.95C1151.57 804.95 1145.83 806.62 1151.39 809.95C1156.95 813.28 1151.57 804.95 1151.57 804.95Z" fill="#D53A3A"/>
<path id="Vector_101" opacity="0.1" d="M1177 715.99C1177.65 715.99 1187.74 712.66 1191.26 714.14C1193.78 715.08 1196.43 715.58 1199.12 715.62L1177 715.99Z" fill="#D53A3A"/>
<path id="Vector_102" opacity="0.1" d="M1178.3 726.54L1178.2 727.46L1169.57 750.06C1169.57 750.06 1168.18 756.91 1166.98 760.8C1166.22 763.429 1165.62 766.101 1165.17 768.8L1172.81 721.43L1178.3 726.54Z" fill="#D53A3A"/>
<path id="Vector_103" d="M1191.74 686.66L1188.15 686.72H1188.04L1185.93 677.39L1189.05 677.22L1191.74 686.66Z" fill="#3F3D56"/>
<path id="Vector_104" d="M1235.41 675.36L1233.11 677.26L1225.41 683.59C1225.41 683.59 1204.59 694.7 1198.85 684.15C1193.79 674.85 1217.4 668.21 1223.09 666.76L1224.3 666.47L1235.41 675.36Z" fill="#FBBEBE"/>
<path id="Vector_105" opacity="0.1" d="M1146.45 584.36C1146.45 584.36 1150.52 586.21 1151.45 588.8C1152.38 591.39 1146.45 584.36 1146.45 584.36Z" fill="#D53A3A"/>
<path id="Vector_106" opacity="0.1" d="M1133.86 612.13C1133.86 612.13 1127.94 619.35 1130.34 622.13C1132.74 624.91 1133.86 612.13 1133.86 612.13Z" fill="#D53A3A"/>
<path id="Vector_107" opacity="0.1" d="M1239.76 588.46C1239.76 588.46 1234.21 589.02 1234.02 593.83L1239.76 588.46Z" fill="#D53A3A"/>
<path id="Vector_108" opacity="0.1" d="M1188.29 664.34C1188.85 663.78 1201.62 644.9 1204.59 646.57L1188.29 664.34Z" fill="#D53A3A"/>
<path id="Vector_109" opacity="0.1" d="M1212.18 541.59C1212.18 545.219 1211.28 548.792 1209.57 551.99H1209.41C1208.01 551.69 1207.28 550.07 1206.22 549.05C1205.56 548.425 1204.73 548.021 1203.83 547.896C1202.94 547.77 1202.02 547.929 1201.22 548.35C1200.41 548.835 1199.75 549.536 1199.31 550.375C1198.88 551.214 1198.69 552.158 1198.76 553.1C1198.06 550.1 1198.28 546.98 1197.59 544.01C1196.9 541.04 1194.83 538.01 1191.99 538.01C1190.77 538.01 1189.34 538.46 1188.46 537.54C1187.93 536.99 1187.82 536.12 1187.46 535.45C1185.46 532.16 1179.26 533.82 1176.74 535.51C1174.22 537.2 1171.29 539.88 1168.16 541.32C1168.2 535.477 1170.56 529.891 1174.73 525.789C1178.89 521.688 1184.51 519.408 1190.35 519.45C1196.19 519.492 1201.78 521.854 1205.88 526.016C1209.98 530.177 1212.26 535.797 1212.22 541.64L1212.18 541.59Z" fill="#D53A3A"/>
<path id="Vector_110" d="M1187.42 534.84C1187.82 535.51 1187.93 536.38 1188.42 536.94C1189.3 537.85 1190.73 537.38 1191.95 537.4C1194.79 537.45 1196.87 540.46 1197.55 543.4C1198.23 546.34 1198.02 549.52 1198.73 552.48C1198.65 551.539 1198.84 550.595 1199.27 549.756C1199.7 548.917 1200.37 548.218 1201.18 547.74C1201.98 547.321 1202.89 547.162 1203.79 547.286C1204.69 547.409 1205.52 547.809 1206.18 548.43C1207.24 549.43 1207.97 551.08 1209.37 551.37C1210.77 551.66 1212.11 550.32 1212.61 548.85C1212.97 547.331 1213.24 545.791 1213.41 544.24C1214.04 541.36 1215.93 538.99 1216.97 536.24C1218.21 532.899 1218.18 529.219 1216.88 525.9C1216.18 524.16 1215.15 522.6 1214.45 520.9C1213.38 518.27 1213.1 515.29 1211.8 512.78C1210.76 510.747 1209.02 509.153 1206.91 508.284C1204.8 507.415 1202.44 507.329 1200.27 508.04C1198.27 508.8 1196.51 510.26 1194.47 510.92C1191.73 511.8 1188.81 511.14 1185.98 510.74C1183.15 510.34 1179.98 510.31 1177.74 512.17C1175.12 514.32 1174.4 518.35 1171.94 520.7C1170.94 521.7 1169.62 522.32 1168.53 523.23C1167.94 523.665 1167.46 524.231 1167.13 524.884C1166.8 525.537 1166.62 526.258 1166.62 526.99C1166.79 528.91 1168.62 530.65 1167.97 532.43C1167.73 532.942 1167.39 533.402 1166.97 533.78C1164.91 535.944 1163.38 538.555 1162.49 541.41C1167.49 542.95 1172.81 537.49 1176.68 534.91C1179.22 533.22 1185.39 531.56 1187.42 534.84Z" fill="#7C5C5C"/>
<path id="Vector_111" opacity="0.1" d="M1235.41 675.36L1233.11 677.26C1231.11 673.87 1222.73 667.11 1222.73 667.11L1223.09 666.76L1224.3 666.47L1235.41 675.36Z" fill="#D53A3A"/>
<path id="Vector_112" d="M1237.63 671.93C1237.63 671.93 1236.81 673.99 1235.95 675.77C1235.09 677.55 1234.16 679.17 1234.12 677.86C1234.02 675.26 1223.29 666.56 1223.29 666.56L1224.74 665.14L1226.43 663.5L1237.63 671.93Z" fill="#E7EFFD"/>
<path id="Vector_113" opacity="0.1" d="M1238 658.23L1239.22 678.88C1236.34 674.41 1228.45 662.95 1223.38 663.32L1235.69 649.16C1236.2 648.59 1236.67 647.985 1237.1 647.35C1237.57 653.25 1238 658.23 1238 658.23Z" fill="#D53A3A"/>
<path id="Vector_114" opacity="0.1" d="M1237.63 671.93C1237.63 671.93 1236.81 673.99 1235.95 675.77C1232.72 671.35 1228.29 666.12 1224.74 665.14L1226.43 663.5L1237.63 671.93Z" fill="#D53A3A"/>
<path id="Vector_115" d="M1246.89 597.04L1250.22 599.63C1250.22 599.63 1255.78 599.73 1256.33 604.35C1256.88 608.97 1261.98 611.11 1261.98 611.11C1261.98 611.11 1265.77 614.91 1265.77 616.67C1265.77 618.43 1268.64 621.57 1268.64 621.85C1268.64 622.13 1271.42 627.77 1271.05 628.79C1270.68 629.81 1274.05 634.25 1272.99 635.92C1272.16 637.418 1271.42 638.964 1270.77 640.55C1270.77 640.55 1266.42 648.88 1264.2 650.45C1261.98 652.02 1251.8 665.27 1251.8 665.27C1251.8 665.27 1240.87 677.85 1240.87 681.74C1240.87 681.74 1230.23 663.97 1223.93 664.43L1236.24 650.27C1236.24 650.27 1238.37 647.95 1238.47 646.57C1238.57 645.19 1244.39 638.79 1247.17 638.51C1247.17 638.51 1247.63 634.72 1246.43 634.62C1245.23 634.52 1244.21 631.62 1244.21 631.62C1244.21 631.62 1236.06 621.99 1235.97 615.88C1235.88 609.77 1246.89 597.04 1246.89 597.04Z" fill="#65617D"/>
<path id="Vector_116" opacity="0.1" d="M1251.8 605.83C1251.8 605.83 1244.02 611.57 1245.69 613.43C1247.36 615.29 1251.8 605.83 1251.8 605.83Z" fill="#D53A3A"/>
<path id="Vector_117" opacity="0.1" d="M1252.17 629.53C1252.17 629.53 1266.61 624.9 1268.09 629.53H1252.17Z" fill="#D53A3A"/>
<path id="Vector_118" opacity="0.1" d="M1162.75 875.46C1162.75 875.46 1154.97 880.56 1151.08 879.81C1148.39 879.471 1145.65 879.923 1143.21 881.11C1140.54 884.038 1137.16 886.237 1133.4 887.5C1127.1 889.63 1118.31 888.79 1113.31 887.13C1110.95 886.34 1110.76 885.32 1111.9 884.07C1117.33 885.15 1129.48 887.3 1132.75 885.74C1136.35 883.827 1139.82 881.661 1143.12 879.26C1143.12 879.26 1151.12 878.15 1152.19 878.15C1152.98 878.15 1159.13 875.61 1162.6 874.15L1162.75 875.46Z" fill="#D53A3A"/>
<path id="Vector_119" opacity="0.1" d="M1209.84 885.91C1209.84 886.22 1209.77 886.42 1209.77 886.42C1209.77 886.42 1207.92 890.49 1197.64 891.97C1187.36 893.45 1187.37 888.55 1187.37 888.55L1187.47 887.22C1190.72 888.46 1197.82 889.83 1209.84 885.91Z" fill="#D53A3A"/>
<path id="Vector_120" opacity="0.1" d="M1150.29 604.72C1150.29 604.72 1150.29 625.83 1148.49 627.91C1146.69 629.99 1150.29 604.72 1150.29 604.72Z" fill="#D53A3A"/>
<path id="Vector_121" opacity="0.1" d="M1233.74 611.53L1236.43 619.07C1236.43 619.07 1237.49 611.67 1233.74 611.53Z" fill="#D53A3A"/>
<g id="Group" opacity="0.1">
<path id="Vector_122" opacity="0.1" d="M1168.29 530.61C1168.97 528.88 1167.19 527.17 1166.96 525.31C1166.72 525.832 1166.62 526.407 1166.66 526.98C1166.78 528.39 1167.82 529.7 1168.09 530.98C1168.17 530.863 1168.23 530.739 1168.29 530.61V530.61Z" fill="#D53A3A"/>
<path id="Vector_123" opacity="0.1" d="M1199.01 550.55C1198.35 547.63 1198.55 544.55 1197.87 541.62C1197.19 538.69 1195.11 535.62 1192.27 535.62C1191.05 535.62 1189.62 536.06 1188.74 535.15C1188.2 534.6 1188.1 533.73 1187.74 533.05C1185.74 529.77 1179.54 531.44 1177.01 533.12C1173.23 535.63 1168.01 540.9 1163.17 539.7C1162.94 540.26 1162.72 540.83 1162.54 541.42C1167.54 542.96 1172.86 537.5 1176.73 534.92C1179.26 533.24 1185.43 531.58 1187.46 534.86C1187.86 535.53 1187.97 536.4 1188.46 536.96C1189.34 537.87 1190.77 537.4 1191.99 537.42C1194.83 537.47 1196.91 540.48 1197.59 543.42C1198.27 546.36 1198.06 549.54 1198.77 552.5C1198.72 551.84 1198.8 551.178 1199.01 550.55V550.55Z" fill="#D53A3A"/>
<path id="Vector_124" opacity="0.1" d="M1212.93 547.08C1212.43 548.55 1211.11 549.9 1209.68 549.6C1208.25 549.3 1207.56 547.68 1206.5 546.66C1205.84 546.039 1205.01 545.638 1204.11 545.513C1203.22 545.387 1202.3 545.544 1201.5 545.96C1200.73 546.422 1200.09 547.082 1199.66 547.871C1199.23 548.66 1199.01 549.55 1199.04 550.45C1199.41 549.318 1200.19 548.364 1201.22 547.77C1202.02 547.351 1202.93 547.192 1203.83 547.316C1204.73 547.439 1205.56 547.839 1206.22 548.46C1207.28 549.46 1208.01 551.11 1209.41 551.4C1210.81 551.69 1212.15 550.35 1212.65 548.88C1212.92 548.016 1213.09 547.123 1213.16 546.22C1213.1 546.512 1213.03 546.799 1212.93 547.08Z" fill="#D53A3A"/>
<path id="Vector_125" opacity="0.1" d="M1217.29 534.46C1216.29 537.2 1214.36 539.57 1213.73 542.46C1213.61 543.04 1213.53 543.64 1213.46 544.24C1214.1 541.36 1215.97 539 1217.01 536.24C1217.47 535.007 1217.76 533.714 1217.86 532.4C1217.72 533.1 1217.53 533.789 1217.29 534.46V534.46Z" fill="#D53A3A"/>
</g>
<path id="Vector_126" d="M1083.51 601.49C1083.64 601.49 1083.74 601.387 1083.74 601.26C1083.74 601.133 1083.64 601.03 1083.51 601.03C1083.38 601.03 1083.28 601.133 1083.28 601.26C1083.28 601.387 1083.38 601.49 1083.51 601.49Z" fill="#E6E8EC"/>
<path id="Vector_127" d="M1171.69 606.42H1003.73C1000.08 606.42 997.12 609.379 997.12 613.03V808.03C997.12 811.681 1000.08 814.64 1003.73 814.64H1171.69C1175.34 814.64 1178.3 811.681 1178.3 808.03V613.03C1178.3 609.379 1175.34 606.42 1171.69 606.42Z" fill="white"/>
<path id="Vector_128" opacity="0.1" d="M1171.69 606.42H1003.73C1000.08 606.42 997.12 609.379 997.12 613.03V808.03C997.12 811.681 1000.08 814.64 1003.73 814.64H1171.69C1175.34 814.64 1178.3 811.681 1178.3 808.03V613.03C1178.3 609.379 1175.34 606.42 1171.69 606.42Z" fill="#5A5773"/>
<path id="Vector_129" d="M1162.45 617.04H1012.97C1009.32 617.04 1006.36 619.999 1006.36 623.65V797.41C1006.36 801.061 1009.32 804.02 1012.97 804.02H1162.45C1166.1 804.02 1169.06 801.061 1169.06 797.41V623.65C1169.06 619.999 1166.1 617.04 1162.45 617.04Z" fill="white"/>
<path id="Vector_130" d="M1135.62 654.54H1036.06C1032.73 654.54 1030.03 657.24 1030.03 660.57V687.03C1030.03 690.36 1032.73 693.06 1036.06 693.06H1135.62C1138.95 693.06 1141.65 690.36 1141.65 687.03V660.57C1141.65 657.24 1138.95 654.54 1135.62 654.54Z" fill="#38ECE1"/>
<path id="Vector_131" d="M1137.56 707.15H1034.13V715.01H1137.56V707.15Z" fill="#38ECE1"/>
<path id="Vector_132" d="M1158.87 723.74H1016.55V731.6H1158.87V723.74Z" fill="#38ECE1"/>
<path id="Vector_133" d="M1158.87 741.2H1016.55V749.06H1158.87V741.2Z" fill="#38ECE1"/>
<path id="Vector_134" d="M1158.87 758.66H1016.55V766.52H1158.87V758.66Z" fill="#38ECE1"/>
<path id="Vector_135" d="M568 537.59H154.61C150.959 537.59 148 540.549 148 544.2V739.2C148 742.851 150.959 745.81 154.61 745.81H568C571.651 745.81 574.61 742.851 574.61 739.2V544.2C574.61 540.549 571.651 537.59 568 537.59Z" fill="white"/>
<path id="Vector_136" opacity="0.1" d="M568 537.59H154.61C150.959 537.59 148 540.549 148 544.2V739.2C148 742.851 150.959 745.81 154.61 745.81H568C571.651 745.81 574.61 742.851 574.61 739.2V544.2C574.61 540.549 571.651 537.59 568 537.59Z" fill="#5A5773"/>
<path id="Vector_137" d="M546.23 548.21H176.37C172.719 548.21 169.76 551.169 169.76 554.82V728.58C169.76 732.231 172.719 735.19 176.37 735.19H546.23C549.881 735.19 552.84 732.231 552.84 728.58V554.82C552.84 551.169 549.881 548.21 546.23 548.21Z" fill="white"/>
<path id="Vector_138" d="M482.29 585.72H231.54C228.21 585.72 225.51 588.42 225.51 591.75V618.21C225.51 621.54 228.21 624.24 231.54 624.24H482.29C485.62 624.24 488.32 621.54 488.32 618.21V591.75C488.32 588.42 485.62 585.72 482.29 585.72Z" fill="#38ECE1"/>
<path id="Vector_139" d="M478.68 638.32H235.15V646.18H478.68V638.32Z" fill="#38ECE1"/>
<path id="Vector_140" d="M528.85 654.91H193.75V662.77H528.85V654.91Z" fill="#38ECE1"/>
<path id="Vector_141" d="M528.85 672.37H193.75V680.23H528.85V672.37Z" fill="#38ECE1"/>
<path id="Vector_142" d="M528.85 689.83H193.75V697.69H528.85V689.83Z" fill="#38ECE1"/>
<path id="Vector_143" d="M252.27 895.64C253.46 891.3 254.27 887.48 254.27 887.48C254.292 884.579 255.056 881.732 256.49 879.21V878.01L256.83 869.2C256.301 867.578 255.632 866.005 254.83 864.5C253.35 861.67 255.33 851.58 255.33 851.58C255.33 851.58 261.76 837.51 260.68 828.38C259.6 819.25 274.3 788.55 274.3 788.55C274.339 785.525 274.03 782.505 273.38 779.55C273.262 778.934 273.228 778.305 273.28 777.68C273.275 777.603 273.275 777.527 273.28 777.45V777.52C273.71 771.52 278.87 760.52 278.87 760.52L279.06 739.12C279.06 739.12 276.52 726.4 282.06 709.67C284.01 703.83 285.29 699.15 286.13 695.53C286.23 695.12 286.32 694.73 286.4 694.35C276.32 692.41 268.62 690.83 268.62 690.83C268.62 690.83 275.45 666.45 279.62 662.3C283.79 658.15 287.45 644.73 287.45 644.73C287.45 644.73 290.19 627.43 287.05 622.23C283.91 617.03 283.77 608.23 283.77 608.23C283.77 608.23 276.35 602.4 275.49 599.91C274.63 597.42 273.26 591.81 273.37 588.91C273.48 586.01 274.54 583.41 274.28 581.86C274.02 580.31 276.79 574.57 275.62 571.75C275.329 570.884 275.193 569.973 275.22 569.06C275.22 569.06 275.22 569.06 275.22 568.98C275.303 566.558 275.621 564.15 276.17 561.79C278.443 560.013 281.068 558.738 283.87 558.05L284.06 557.39L284.56 555.68C284.806 555.527 285.06 555.387 285.32 555.26L285.37 554.63L285.53 552.14L284.57 546.46C282.57 536.6 295.69 535.65 295.69 535.65C296.535 534.182 297.891 533.078 299.5 532.55C302.16 531.73 299.38 547.26 298.11 548.21C297.11 548.92 294.11 553.71 292.66 556.06L292.42 556.45C292.631 556.651 292.824 556.868 293 557.1L292.37 560.47L292.27 560.98C293.095 562.087 293.753 563.31 294.22 564.61C294.22 564.61 291.73 567.13 292.1 570.07C292.208 572.357 291.868 574.643 291.1 576.8C291.24 576.65 292.99 574.9 294.65 575.4C296.31 575.9 300.93 577.49 300.93 577.49C300.93 577.49 304.4 578.24 304.05 579C303.7 579.76 306.28 583.24 306.28 583.24L316.01 574.71C316.12 574.44 316.22 574.18 316.32 573.91C316.768 572.652 317.103 571.357 317.32 570.04C316.294 569.76 315.291 569.402 314.32 568.97C313.345 568.595 312.474 567.991 311.78 567.21C310.88 566.05 310.78 564.51 310.43 563.1C309.79 560.34 308.29 557.84 307.24 555.19C305.479 550.744 305.014 545.889 305.9 541.19C306.114 539.75 306.662 538.38 307.5 537.19C309.12 535.14 311.93 534.39 314.02 532.79C316.11 531.19 317.51 528.66 319.91 527.49C322.09 526.43 324.68 526.67 327.07 527.15C331.711 528.097 336.136 529.897 340.12 532.46C341.46 533.33 342.93 534.33 344.52 534.1C345.839 533.749 347.002 532.963 347.82 531.87C347.816 531.823 347.816 531.777 347.82 531.73L347.93 531.62C348.838 533.865 349.241 536.282 349.11 538.7C349.11 539.07 349.11 539.45 349.03 539.82C349.03 539.95 349.03 540.08 349.03 540.21C349.02 540.32 349.02 540.43 349.03 540.54V540.54C349.025 540.705 349.046 540.871 349.09 541.03C349.266 541.523 349.549 541.971 349.92 542.34C350.192 542.674 350.433 543.032 350.64 543.41C350.64 543.28 350.57 543.15 350.53 543.02C351.096 543.918 351.394 544.959 351.39 546.02C351.413 546.794 351.129 547.545 350.6 548.11C350.117 548.558 349.587 548.954 349.02 549.29C349.526 552.922 348.908 556.621 347.249 559.891C345.59 563.161 342.97 565.844 339.74 567.58C339.62 567.84 339.5 568.11 339.39 568.38C337.902 571.558 337.182 575.042 337.29 578.55C337.29 578.8 337.29 579.05 337.37 579.3C337.45 579.55 337.6 579.57 337.7 579.71C337.7 579.71 353.2 580.46 356.98 577.29C360.76 574.12 365.88 585.72 365.88 585.72C365.88 585.72 371.4 587.01 372.55 585.98C373.7 584.95 380.19 586.12 380.19 586.12C382.94 583.851 386.452 582.718 390.01 582.95C392.246 581.384 394.694 580.145 397.28 579.27V579.27L397.46 579.21C398.591 578.842 399.792 578.736 400.97 578.9C400.97 578.9 408.84 572.9 411.19 569.59C413.54 566.28 424.57 554.15 424.57 554.09L424.64 553.49L424.83 551.67C425.14 551.734 425.454 551.774 425.77 551.79L426.01 551.16C426.686 549.402 427.505 547.703 428.46 546.08C428.46 546.08 428.55 543.77 427.9 543.17C427.25 542.57 428.53 534.17 428.53 534.17C428.53 534.17 436.02 518.37 441.71 530.6C441.71 530.6 453.05 538.81 442.93 547.47C442.93 547.47 438.93 549.21 438.36 550.68C437.96 551.68 436.53 554.3 435.57 556.07L435.14 556.86L435.25 556.96L435.05 558.46L434.97 559.05C436.76 560.16 437.97 561.24 437.64 562.05C437.044 563.361 436.618 564.742 436.37 566.16C436.37 566.16 422.23 582.46 420.21 589.65C420.21 589.65 383.15 609.79 371.21 610.87L372.86 621.71C373.056 624.636 373.102 627.569 373 630.5C372.75 632.8 373.94 643.31 373.94 643.31C373.94 643.31 375.41 658.77 377.08 660.99C378.75 663.21 378.08 672.43 378.08 672.43C378.331 676.862 378.96 681.265 379.96 685.59C381.48 691.5 379.96 698.68 379.96 698.68C379.96 698.68 385.47 712.75 371.37 702.81C371.37 702.81 364.29 702.1 356.13 701.51C356.13 701.77 356.13 702.05 356.13 702.32C356.13 703.38 356.08 704.52 356.05 705.72C355.85 713.65 355.48 724.57 354.8 732.82C353.6 747.41 348.04 776.15 348.04 776.15L347.48 790.67C347.718 792.046 347.805 793.445 347.74 794.84C347.646 799.964 346.095 804.955 343.27 809.23L341.78 818.88C341.78 818.88 338.93 825.16 338.73 828.97C338.725 829.282 338.751 829.594 338.81 829.9C338.883 830.393 338.907 830.892 338.88 831.39C338.88 835.79 335.8 846.21 335.8 846.21C335.8 846.21 335.23 856.82 333.62 857.37C332.24 857.85 335.2 863.56 336.08 865.2C336.113 865.102 336.136 865.002 336.15 864.9L336.34 865.22C336.634 866.092 336.766 867.01 336.73 867.93C336.79 868.658 336.642 869.388 336.304 870.036C335.966 870.684 335.451 871.222 334.82 871.59C331.73 873.32 330.05 874.79 332.59 875.51C333.528 875.693 334.456 875.923 335.37 876.2L335.52 875.85C335.879 876.005 336.173 876.278 336.355 876.624C336.537 876.969 336.595 877.367 336.52 877.75C336.451 879.007 336.076 880.229 335.43 881.31C334.198 884.039 332.655 886.616 330.83 888.99L329.61 888.81C329.775 889.279 329.997 889.725 330.27 890.14C330.708 890.828 331.304 891.401 332.01 891.81C332.659 892.229 333.387 892.508 334.15 892.63C335.012 892.694 335.85 892.937 336.612 893.346C337.373 893.754 338.04 894.317 338.57 895C340.07 897.11 340.96 899.94 337.73 902.27L326.22 905.75C326.22 905.75 306.58 907.54 307.78 903.2C308.98 898.86 309.78 895.04 309.78 895.04C309.801 892.356 310.445 889.713 311.66 887.32C311.882 886.931 312.129 886.557 312.4 886.2L311.71 886.1C311.71 886.1 310.57 876.35 308.69 874.46C308.27 874.01 308.18 873.68 308.29 873.46C308.12 872.93 308.62 872.64 309.29 872.46C309.29 872.58 309.38 872.71 309.42 872.84C310.047 872.734 310.684 872.691 311.32 872.71C311.32 872.71 312.15 867.66 310.16 865.71C309.999 865.495 309.886 865.248 309.827 864.986C309.768 864.724 309.766 864.453 309.82 864.19C309.824 863.493 309.922 862.801 310.11 862.13C310.13 862.172 310.153 862.212 310.18 862.25C311.4 857.69 315.18 850.51 315.18 850.51C315.18 850.51 315.51 845.9 314.31 844C313.11 842.1 315.44 818.94 315.44 818.94C315.44 818.94 315.39 807.7 317.02 802.53C318.65 797.36 315.71 791.08 315.71 791.08C315.71 791.08 315.71 790.96 315.76 790.75C315.763 790.72 315.763 790.69 315.76 790.66C315.76 790.66 315.86 789.97 316.02 788.9V789.01C316.46 786.01 317.27 780.7 317.81 778.22C318.58 774.71 318.44 757.76 318.44 757.76L315.85 750.46L310.28 762.72L304.28 779.12C304.28 779.12 301.47 782.52 301.28 786.12C301.28 786.3 301.28 786.47 301.28 786.65C301.305 787.02 301.305 787.39 301.28 787.76C301.288 789.86 300.63 791.908 299.4 793.61C299.4 793.61 297.67 801.4 295.4 803.31C293.13 805.22 292.95 809.07 292.95 809.07C292.95 809.07 289.81 820.35 288.46 822.3C287.33 823.94 287.09 828.57 287.05 829.99C287.05 830.25 287.05 830.4 287.05 830.4C287.05 830.4 286.52 834.46 286.4 837.88C286.4 838.3 286.4 838.71 286.4 839.09C286.395 839.064 286.395 839.036 286.4 839.01C286.362 839.939 286.436 840.869 286.62 841.78C286.62 841.78 286.62 841.89 286.62 841.95V841.37C287.095 843.712 287.28 846.103 287.17 848.49C287.08 852.58 286.27 857.4 283.68 860.15C279.2 864.91 276.53 864.15 276.53 864.15C276.53 864.15 278.36 870.38 280.85 871.71C280.946 871.761 281.036 871.821 281.12 871.89C281.12 871.77 281.12 871.65 281.19 871.54C281.455 871.86 281.65 872.231 281.763 872.631C281.877 873.03 281.906 873.449 281.85 873.86C281.93 876.57 280.05 880.86 278.35 882.86C277.731 883.432 276.978 883.837 276.16 884.04C276.284 884.135 276.415 884.222 276.55 884.3C276.827 884.464 277.115 884.611 277.41 884.74C277.813 884.937 278.245 885.068 278.69 885.13C279.553 885.188 280.394 885.429 281.156 885.838C281.918 886.247 282.584 886.813 283.11 887.5C284.61 889.6 285.5 892.43 282.27 894.76L270.76 898.24C270.76 898.24 251.06 899.98 252.27 895.64Z" fill="url(#paint2_linear)"/>
<path id="Vector_144" d="M326.62 905.77L337.77 902.28C340.9 899.94 340.04 897.11 338.59 895C338.089 894.324 337.449 893.764 336.712 893.358C335.975 892.953 335.159 892.711 334.32 892.65C333.575 892.527 332.865 892.244 332.24 891.82C331.559 891.407 330.987 890.838 330.57 890.16C329.818 888.854 329.441 887.366 329.48 885.86C329.48 885.86 317.54 881.86 314.1 885.27C313.492 885.889 312.977 886.593 312.57 887.36C311.39 889.764 310.761 892.402 310.73 895.08C310.73 895.08 309.97 898.89 308.8 903.24C307.63 907.59 326.62 905.77 326.62 905.77Z" fill="#2D293D"/>
<path id="Vector_145" d="M273.01 898.28L284.16 894.79C287.29 892.45 286.43 889.62 284.98 887.52C284.479 886.841 283.838 886.278 283.099 885.871C282.36 885.463 281.542 885.221 280.7 885.16C280.268 885.103 279.849 884.974 279.46 884.78C279.175 884.647 278.897 884.497 278.63 884.33C275.63 882.52 275.86 878.33 275.86 878.33C275.86 878.33 263.92 874.33 260.48 877.74C260.019 878.2 259.609 878.71 259.26 879.26C257.862 881.801 257.12 884.65 257.1 887.55C257.1 887.55 256.33 891.37 255.17 895.71C254.01 900.05 273.01 898.28 273.01 898.28Z" fill="#2D293D"/>
<path id="Vector_146" opacity="0.1" d="M314.09 885.27C313.485 885.89 312.973 886.594 312.57 887.36V887.36L330.57 890.15C329.819 888.844 329.441 887.356 329.48 885.85C329.48 885.85 317.57 881.86 314.09 885.27Z" fill="#D53A3A"/>
<path id="Vector_147" opacity="0.1" d="M259.26 879.3L259.13 882.69C261.77 887.44 275.42 886.95 279.46 884.78C279.175 884.647 278.897 884.497 278.63 884.33C275.63 882.52 275.86 878.33 275.86 878.33C275.86 878.33 263.92 874.33 260.48 877.74C260.016 878.213 259.607 878.736 259.26 879.3Z" fill="#D53A3A"/>
<path id="Vector_148" d="M257.67 864.62C258.465 866.129 259.133 867.701 259.67 869.32L259.18 881.46C262.06 886.66 278.12 885.58 280.38 882.9C282.64 880.22 285.22 873.07 282.81 871.75C280.4 870.43 278.63 864.19 278.63 864.19C278.63 864.19 281.22 864.91 285.57 860.19C289.92 855.47 289.1 844.46 288.42 841.82C287.74 839.18 288.87 830.44 288.87 830.44C288.87 830.44 288.95 824.28 290.26 822.33C291.57 820.38 294.62 809.1 294.62 809.1C294.62 809.1 294.76 805.25 296.99 803.34C299.22 801.43 300.91 793.63 300.91 793.63C302.248 791.72 302.88 789.405 302.7 787.08C302.39 783.22 305.62 779.18 305.62 779.18L311.49 762.78L316.89 750.51L319.38 757.84C319.38 757.84 319.5 774.79 318.75 778.3C318 781.81 316.75 791.16 316.75 791.16C316.75 791.16 319.59 797.43 318.01 802.61C316.43 807.79 316.45 819.02 316.45 819.02C316.45 819.02 314.17 842.19 315.33 844.08C316.49 845.97 316.16 850.58 316.16 850.58C316.16 850.58 309.34 863.87 311.26 865.8C313.18 867.73 312.38 872.8 312.38 872.8C312.38 872.8 308.08 872.63 309.85 874.55C311.62 876.47 312.57 886.14 312.57 886.14L331.08 889.01C332.854 886.624 334.35 884.044 335.54 881.32C338.22 875.73 335.28 876.23 332.83 875.52C330.38 874.81 332 873.33 334.99 871.6C337.98 869.87 336.45 865.65 336.45 865.65C336.45 865.65 332.28 857.94 333.85 857.39C335.42 856.84 335.97 846.23 335.97 846.23C335.97 846.23 339.53 833.73 338.89 830.32C338.25 826.91 341.8 818.88 341.8 818.88L343.24 809.24C346.746 803.873 348.198 797.422 347.33 791.07L347.91 776.15C347.91 776.15 353.35 747.46 354.57 732.82C355.33 723.48 355.71 710.71 355.88 702.74C355.98 698.26 356.02 695.3 356.02 695.3L289.85 685.82C289.62 689.135 289.088 692.422 288.26 695.64C287.45 699.27 286.2 703.95 284.26 709.79C278.84 726.52 281.26 739.24 281.26 739.24L281.05 760.64C281.05 760.64 274.65 774.72 275.7 779.69C276.327 782.648 276.622 785.667 276.58 788.69C276.58 788.69 262.34 819.37 263.38 828.46C264.42 837.55 258.17 851.67 258.17 851.67C258.17 851.67 256.24 861.79 257.67 864.62Z" fill="#575988"/>
<path id="Vector_149" opacity="0.05" d="M298.74 785.96L278.62 782.46C278.62 782.46 289.63 794.62 298.74 785.96Z" fill="#D53A3A"/>
<path id="Vector_150" opacity="0.1" d="M282.3 762.85C282.3 762.85 281.3 769.97 285.61 772.85C285.57 772.83 277.82 771.3 282.3 762.85Z" fill="#D53A3A"/>
<path id="Vector_151" opacity="0.1" d="M284.42 740.13C284.42 740.13 300.79 754.7 306.98 753.79C313.17 752.88 284.42 740.13 284.42 740.13Z" fill="#D53A3A"/>
<path id="Vector_152" opacity="0.1" d="M323.57 793.46C323.57 793.46 336.3 796.88 336.49 802.04C336.68 807.2 323.57 793.46 323.57 793.46Z" fill="#D53A3A"/>
<path id="Vector_153" opacity="0.05" d="M318.26 857.46C318.26 857.46 336.26 861.54 331.04 863.65C325.82 865.76 317.27 867.28 317.27 867.28C317.27 867.28 311.41 867.38 318.26 857.46Z" fill="#D53A3A"/>
<g id="Group_2" opacity="0.05">
<path id="Vector_154" opacity="0.05" d="M334.57 867.46C335.036 867.192 335.436 866.823 335.74 866.38C336.045 865.937 336.246 865.431 336.33 864.9L336.5 865.23C336.5 865.23 338.04 869.44 335.04 871.23C334.7 871.42 334.38 871.62 334.04 871.81C333.51 871.69 332.93 871.59 332.38 871.43C329.94 870.68 331.57 869.2 334.57 867.46Z" fill="#D53A3A"/>
<path id="Vector_155" opacity="0.05" d="M311.23 865.34C310.75 864.86 310.82 863.68 311.23 862.17C311.919 863.565 312.216 865.12 312.09 866.67C311.909 866.167 311.615 865.712 311.23 865.34V865.34Z" fill="#D53A3A"/>
<path id="Vector_156" opacity="0.05" d="M316.97 788.94C317.567 790.788 317.903 792.71 317.97 794.65C317.676 793.3 317.254 791.98 316.71 790.71C316.71 790.71 316.82 790.02 316.97 788.94Z" fill="#D53A3A"/>
<path id="Vector_157" opacity="0.05" d="M275.74 779.27C275.638 778.713 275.601 778.146 275.63 777.58C275.82 778.74 275.94 779.81 276.01 780.75C275.93 780.27 275.84 779.78 275.74 779.27Z" fill="#D53A3A"/>
<path id="Vector_158" opacity="0.05" d="M315.3 843.63C314.999 842.513 314.891 841.353 314.98 840.2C315.495 841.587 315.74 843.061 315.7 844.54C315.603 844.222 315.469 843.917 315.3 843.63V843.63Z" fill="#D53A3A"/>
<path id="Vector_159" opacity="0.05" d="M310.38 872.46C311.218 875.585 311.803 878.772 312.13 881.99L330.64 884.86C332.42 882.477 333.92 879.896 335.11 877.17C335.35 876.68 335.53 876.24 335.69 875.84C336.78 876.39 337.18 877.57 335.58 880.89C334.389 883.611 332.893 886.187 331.12 888.57L312.57 885.72C312.57 885.72 311.57 875.98 309.78 874.07C308.95 873.12 309.57 872.69 310.38 872.46Z" fill="#D53A3A"/>
<path id="Vector_160" opacity="0.05" d="M336.01 845.81C336.01 845.81 335.45 856.42 333.89 856.97C333.18 855.18 332.72 853.5 333.42 853.25C334.98 852.69 335.55 842.09 335.55 842.09C335.55 842.09 339.11 829.6 338.47 826.18C337.83 822.76 341.37 814.75 341.37 814.75L342.82 805.1C346.326 799.733 347.778 793.282 346.91 786.93L347.48 772.01C347.48 772.01 352.9 743.27 354.08 728.68C354.83 719.34 355.21 706.57 355.39 698.6C355.39 697.16 355.45 695.88 355.47 694.8L356 694.88C356 694.88 356 697.88 355.86 702.31C355.69 710.31 355.31 723.06 354.55 732.4C353.37 746.98 347.96 775.73 347.96 775.73L347.38 790.64C348.248 796.99 346.8 803.441 343.3 808.81L341.84 818.46C341.84 818.46 338.29 826.46 338.93 829.9C339.57 833.34 336.01 845.81 336.01 845.81Z" fill="#D53A3A"/>
<path id="Vector_161" opacity="0.05" d="M279.92 878.77C281.511 876.641 282.611 874.185 283.14 871.58C284.97 873.36 282.54 879.93 280.39 882.48C278.24 885.03 262.07 886.24 259.19 881.05L259.3 878.12C263.3 882.4 277.78 881.31 279.92 878.77Z" fill="#D53A3A"/>
<path id="Vector_162" opacity="0.05" d="M257.21 860.46C258.005 861.969 258.673 863.541 259.21 865.16L259.12 867.31C258.701 866.24 258.227 865.192 257.7 864.17C257.259 862.944 257.082 861.639 257.18 860.34L257.21 860.46Z" fill="#D53A3A"/>
<path id="Vector_163" opacity="0.05" d="M279.57 863.78C279.029 862.575 278.568 861.336 278.19 860.07C278.19 860.07 280.78 860.78 285.12 856.02C288.28 852.55 288.71 845.8 288.45 841.36C289.13 844.01 289.94 854.97 285.6 859.73C282.74 862.85 280.65 863.62 279.57 863.78Z" fill="#D53A3A"/>
<path id="Vector_164" opacity="0.05" d="M288.88 829.98C288.491 833.002 288.271 836.043 288.22 839.09C288.16 838.606 288.074 838.125 287.96 837.65C287.29 835 288.4 826.27 288.4 826.27C288.4 826.27 288.49 820.11 289.79 818.16C291.09 816.21 294.15 804.93 294.15 804.93C294.15 804.93 294.3 801.09 296.53 799.17C298.76 797.25 300.45 789.46 300.45 789.46C301.783 787.548 302.415 785.234 302.24 782.91C301.93 779.05 305.16 775.01 305.16 775.01L311.03 758.61L316.43 746.34L318.92 753.68C318.92 753.68 318.92 754.58 318.92 756.02L316.92 750.02L311.52 762.28L305.65 778.69C305.65 778.69 302.42 782.69 302.73 786.59C302.91 788.915 302.278 791.23 300.94 793.14C300.94 793.14 299.25 800.93 297.02 802.84C294.79 804.75 294.65 808.6 294.65 808.6C294.65 808.6 291.59 819.88 290.29 821.84C288.99 823.8 288.88 829.98 288.88 829.98Z" fill="#D53A3A"/>
</g>
<path id="Vector_165" d="M286.85 546.56L287.79 552.22L287.63 554.72L287.51 556.56L293.9 557.47L294.67 556.17C296.09 553.82 299.03 549.03 299.96 548.31C301.18 547.36 303.9 531.83 301.32 532.65C299.747 533.192 298.429 534.296 297.62 535.75C297.62 535.75 284.96 536.71 286.85 546.56Z" fill="#FFCDD3"/>
<path id="Vector_166" opacity="0.1" d="M287.51 556.56L293.9 557.47L294.67 556.17C293.846 555.163 292.7 554.471 291.425 554.208C290.151 553.946 288.825 554.13 287.67 554.73L287.51 556.56Z" fill="#D53A3A"/>
<path id="Vector_167" d="M285.77 559.54L294.16 561.83L294.38 560.57L294.99 557.2C294.551 556.569 293.991 556.031 293.342 555.617C292.694 555.203 291.97 554.921 291.213 554.788C290.455 554.656 289.679 554.674 288.928 554.842C288.178 555.011 287.468 555.326 286.84 555.77L286.36 557.48L285.77 559.54Z" fill="#DCE6F2"/>
<path id="Vector_168" d="M423.31 552.46L432.15 557.66C432.15 557.66 432.52 556.95 433.04 555.98C433.97 554.21 435.35 551.55 435.74 550.59C436.33 549.12 440.17 547.37 440.17 547.37C449.98 538.7 439.01 530.51 439.01 530.51C433.51 518.28 426.25 534.09 426.25 534.09C426.25 534.09 425 542.52 425.63 543.09C426.26 543.66 426.17 546 426.17 546C425.238 547.625 424.442 549.324 423.79 551.08C423.48 551.91 423.31 552.46 423.31 552.46Z" fill="#FFCDD3"/>
<path id="Vector_169" opacity="0.1" d="M423.31 552.46L432.15 557.66C432.15 557.66 432.52 556.95 433.04 555.98C431.8 554.87 427.42 550.98 425.93 551.14C425.218 551.211 424.502 551.211 423.79 551.14C423.48 551.91 423.31 552.46 423.31 552.46Z" fill="#D53A3A"/>
<path id="Vector_170" d="M422.28 555.13L432.28 560.52L432.56 558.34L432.76 556.84C432.76 556.84 427.08 551.58 425.34 551.7C424.453 551.789 423.557 551.752 422.68 551.59L422.5 553.41L422.28 555.13Z" fill="#DCE6F2"/>
<path id="Vector_171" d="M310.02 584.8C310.02 584.8 354.09 591.5 345.92 588.5C340.23 586.4 338.08 582.65 337.76 578.57C337.65 575.069 338.334 571.589 339.76 568.39C340.918 565.64 342.348 563.014 344.03 560.55C344.03 560.55 310.91 540.64 317.03 557.82C317.976 560.419 318.519 563.147 318.64 565.91C318.736 568.652 318.336 571.39 317.46 573.99C316.023 578.21 313.448 581.951 310.02 584.8V584.8Z" fill="#FFCDD3"/>
<path id="Vector_172" opacity="0.1" d="M317.07 557.82C318.016 560.419 318.559 563.147 318.68 565.91C321.76 568.7 325.26 568.66 329.75 568.83C333.2 568.97 336.98 569.95 339.75 568.39C340.908 565.64 342.338 563.014 344.02 560.55C344.02 560.55 310.95 540.64 317.07 557.82Z" fill="#D53A3A"/>
<path id="Vector_173" d="M331.01 570.04C341.122 570.04 349.32 561.842 349.32 551.73C349.32 541.618 341.122 533.42 331.01 533.42C320.898 533.42 312.7 541.618 312.7 551.73C312.7 561.842 320.898 570.04 331.01 570.04Z" fill="#FFCDD3"/>
<path id="Vector_174" opacity="0.1" d="M310.02 584.8C310.02 584.8 354.09 591.5 345.92 588.5C340.23 586.4 338.08 582.65 337.76 578.57C335.65 576.1 331.29 574.21 328.48 573.18C325.922 572.216 323.129 572.063 320.48 572.74C319.424 573.006 318.413 573.427 317.48 573.99C316.037 578.212 313.456 581.953 310.02 584.8Z" fill="#D53A3A"/>
<path id="Vector_175" opacity="0.1" d="M285.77 559.54L294.16 561.83L294.38 560.57C293.525 559.296 292.299 558.315 290.868 557.763C289.436 557.21 287.869 557.111 286.38 557.48L285.77 559.54Z" fill="#D53A3A"/>
<path id="Vector_176" opacity="0.1" d="M422.28 555.13L432.28 560.52L432.56 558.34C429.319 556.466 425.943 554.835 422.46 553.46L422.28 555.13Z" fill="#D53A3A"/>
<path id="Vector_177" opacity="0.1" d="M288.22 695.64C305.22 699.01 329.52 703.47 333.43 702.44C336.68 701.59 346.93 702.09 355.84 702.74C355.94 698.26 355.98 695.3 355.98 695.3L289.81 685.82C289.58 689.135 289.048 692.422 288.22 695.64V695.64Z" fill="#D53A3A"/>
<path id="Vector_178" d="M271.29 690.96C271.29 690.96 327.35 702.82 333.48 701.21C339.61 699.6 370.63 702.79 370.63 702.79C384.26 712.71 378.95 698.65 378.95 698.65C378.95 698.65 380.46 691.47 378.95 685.56C377.983 681.231 377.377 676.829 377.14 672.4C377.14 672.4 377.81 663.18 376.2 660.97C374.59 658.76 373.2 643.29 373.2 643.29C373.2 643.29 372.07 632.78 372.31 630.48C372.55 628.18 372.19 621.69 372.19 621.69L370.6 610.85C382.19 609.76 418.08 589.58 418.08 589.58C420.08 582.42 433.77 566 433.77 566C434.016 564.585 434.432 563.205 435.01 561.89C436.01 559.47 422.38 554.02 422.38 554.02C422.38 554.02 411.57 566.23 409.33 569.53C407.09 572.83 399.42 578.85 399.42 578.85C398.278 578.691 397.114 578.797 396.02 579.16H395.84C393.341 580.046 390.983 581.289 388.84 582.85C385.376 582.634 381.963 583.77 379.32 586.02C379.32 586.02 373.05 584.86 371.94 585.89C370.83 586.92 365.48 585.64 365.48 585.64C365.48 585.64 360.48 574.06 356.87 577.23C353.26 580.4 338.2 579.67 338.2 579.67C336.31 576.93 331.51 574.84 328.51 573.74C325.953 572.771 323.158 572.618 320.51 573.3C319.361 573.583 318.268 574.059 317.28 574.71L307.84 583.27C307.84 583.27 305.35 579.79 305.69 579.03C306.03 578.27 302.69 577.53 302.69 577.53C302.69 577.53 298.28 575.97 296.61 575.45C294.94 574.93 293.31 576.69 293.17 576.85C293.933 574.692 294.273 572.407 294.17 570.12C293.82 567.18 296.22 564.65 296.22 564.65C291.35 551.22 278.78 561.83 278.78 561.83C278.78 561.83 277.11 569 278.24 571.83C279.37 574.66 276.68 580.39 276.92 581.94C277.16 583.49 276.15 586.07 276.04 588.99C275.93 591.91 277.25 597.51 278.04 599.99C278.83 602.47 286.04 608.31 286.04 608.31C286.04 608.31 286.17 617.09 289.2 622.31C292.23 627.53 289.57 644.81 289.57 644.81C289.57 644.81 285.97 658.22 281.96 662.38C277.95 666.54 271.29 690.96 271.29 690.96Z" fill="#656691"/>
<path id="Vector_179" opacity="0.1" d="M357.45 592.94C357.45 592.94 359.34 587.94 360.89 587.53C362.444 587.025 363.961 586.414 365.43 585.7L364.51 583.77C364.51 583.77 358.67 585.14 357.69 586.77C356.71 588.4 357.45 592.94 357.45 592.94Z" fill="#D53A3A"/>
<path id="Vector_180" opacity="0.1" d="M388.79 582.91C389.04 584.46 402.67 586.37 402.67 586.37L396.02 579.16H395.85C393.326 580.059 390.948 581.322 388.79 582.91V582.91Z" fill="#D53A3A"/>
<path id="Vector_181" d="M429.2 564.55C429.879 564.55 430.43 563.999 430.43 563.32C430.43 562.641 429.879 562.09 429.2 562.09C428.521 562.09 427.97 562.641 427.97 563.32C427.97 563.999 428.521 564.55 429.2 564.55Z" fill="#575988"/>
<path id="Vector_182" d="M427.53 566.95C428.209 566.95 428.76 566.399 428.76 565.72C428.76 565.041 428.209 564.49 427.53 564.49C426.851 564.49 426.3 565.041 426.3 565.72C426.3 566.399 426.851 566.95 427.53 566.95Z" fill="#575988"/>
<path id="Vector_183" d="M425.9 569.16C426.579 569.16 427.13 568.609 427.13 567.93C427.13 567.251 426.579 566.7 425.9 566.7C425.221 566.7 424.67 567.251 424.67 567.93C424.67 568.609 425.221 569.16 425.9 569.16Z" fill="#575988"/>
<path id="Vector_184" d="M424.2 571.56C424.879 571.56 425.43 571.009 425.43 570.33C425.43 569.651 424.879 569.1 424.2 569.1C423.521 569.1 422.97 569.651 422.97 570.33C422.97 571.009 423.521 571.56 424.2 571.56Z" fill="#575988"/>
<path id="Vector_185" d="M279.25 565.62C279.802 565.62 280.25 565.172 280.25 564.62C280.25 564.068 279.802 563.62 279.25 563.62C278.698 563.62 278.25 564.068 278.25 564.62C278.25 565.172 278.698 565.62 279.25 565.62Z" fill="#575988"/>
<path id="Vector_186" d="M279.01 567.88C279.562 567.88 280.01 567.432 280.01 566.88C280.01 566.328 279.562 565.88 279.01 565.88C278.458 565.88 278.01 566.328 278.01 566.88C278.01 567.432 278.458 567.88 279.01 567.88Z" fill="#575988"/>
<path id="Vector_187" d="M278.78 570.14C279.332 570.14 279.78 569.692 279.78 569.14C279.78 568.588 279.332 568.14 278.78 568.14C278.228 568.14 277.78 568.588 277.78 569.14C277.78 569.692 278.228 570.14 278.78 570.14Z" fill="#575988"/>
<path id="Vector_188" opacity="0.1" d="M355.77 634.61C355.92 634.44 319.57 676.88 293.63 650.55C293.63 650.55 335.93 657.95 355.77 634.61Z" fill="#D53A3A"/>
<path id="Vector_189" opacity="0.1" d="M374.81 658.14C374.81 658.14 354.04 657.91 351.64 663.79L351.4 670C351.978 670.349 352.636 670.546 353.311 670.572C353.986 670.598 354.656 670.453 355.26 670.15C357.4 669.1 370.18 663.21 374.49 666.45L374.81 658.14Z" fill="#D53A3A"/>
<path id="Vector_190" d="M374.42 658.12C374.42 658.12 354.57 657.9 352.27 663.51L352.04 669.43C352.592 669.765 353.221 669.954 353.867 669.978C354.513 670.003 355.154 669.862 355.73 669.57C357.73 668.57 370 662.96 374.12 666.04L374.42 658.12Z" fill="#656691"/>
<path id="Vector_191" opacity="0.1" d="M365.22 612.66C362.908 617.481 360.032 622.009 356.65 626.15C352.955 630.729 348.537 634.674 343.57 637.83C343.57 637.83 364.76 615.46 365.22 612.66Z" fill="#D53A3A"/>
<path id="Vector_192" opacity="0.1" d="M372.93 588.82C372.93 588.82 368.93 603.63 359.78 608.36L372.93 588.82Z" fill="#D53A3A"/>
<path id="Vector_193" opacity="0.1" d="M378.18 590.53C378.28 590.26 380.8 602.47 365.97 608.6C365.97 608.6 372.24 606.73 378.18 590.53Z" fill="#D53A3A"/>
<path id="Vector_194" opacity="0.1" d="M287.99 577.03C288.22 577.03 280.62 581.48 278.52 583.59C278.57 583.59 283.62 576.55 287.99 577.03Z" fill="#D53A3A"/>
<path id="Vector_195" d="M335.32 568.51C335.132 569.48 334.586 570.344 333.79 570.93C333.243 571.17 332.646 571.276 332.05 571.24C326.46 571.38 320.64 571.4 315.57 569.05C314.621 568.673 313.78 568.069 313.12 567.29C312.24 566.13 312.12 564.6 311.81 563.18C311.19 560.42 309.74 557.93 308.73 555.28C307.029 550.818 306.59 545.975 307.46 541.28C307.66 539.845 308.191 538.476 309.01 537.28C310.57 535.23 313.3 534.48 315.32 532.87C317.34 531.26 318.7 528.74 321.04 527.56C323.14 526.5 325.65 526.73 327.96 527.22C332.495 528.17 336.805 529.98 340.66 532.55C341.95 533.42 343.37 534.41 344.91 534.18C346.23 533.814 347.382 533.001 348.17 531.88C349.16 534.423 349.524 537.167 349.23 539.88C349.16 540.277 349.16 540.683 349.23 541.08C349.401 541.568 349.673 542.015 350.03 542.39C351.34 544.04 352.11 546.6 350.69 548.16C350.07 548.84 349.14 549.16 348.54 549.89C347.46 551.13 347.73 552.99 347.69 554.64C347.726 555.214 347.564 555.782 347.23 556.25C346.92 556.513 346.547 556.692 346.148 556.771C345.749 556.85 345.337 556.825 344.95 556.7C344.179 556.437 343.363 556.328 342.55 556.38C341.682 556.629 340.925 557.165 340.4 557.9C337.69 561.04 336.57 564.61 335.32 568.51Z" fill="#2D293D"/>
<g id="Group_3" opacity="0.1">
<path id="Vector_196" opacity="0.1" d="M312.57 565.85C313.226 566.635 314.069 567.243 315.02 567.62C320.09 569.97 325.91 569.94 331.5 569.81C332.097 569.848 332.695 569.738 333.24 569.49C334.038 568.91 334.585 568.049 334.77 567.08C336 563.17 337.14 559.61 339.85 556.43C340.373 555.691 341.131 555.152 342 554.9C342.813 554.853 343.628 554.962 344.4 555.22C344.787 555.348 345.2 555.374 345.599 555.295C345.999 555.216 346.371 555.035 346.68 554.77C347.015 554.306 347.177 553.741 347.14 553.17C347.14 551.52 346.91 549.66 347.99 548.41C348.59 547.72 349.52 547.41 350.14 546.69C350.543 546.18 350.801 545.571 350.887 544.927C350.973 544.283 350.884 543.628 350.63 543.03C351.55 544.62 351.9 546.63 350.7 547.94C350.08 548.62 349.16 548.94 348.55 549.67C347.47 550.91 347.75 552.77 347.71 554.42C347.748 554.995 347.581 555.565 347.24 556.03C346.93 556.294 346.558 556.473 346.159 556.552C345.76 556.631 345.347 556.606 344.96 556.48C344.192 556.217 343.38 556.108 342.57 556.16C341.697 556.41 340.936 556.95 340.41 557.69C337.71 560.86 336.57 564.43 335.33 568.33C335.313 568.73 335.212 569.122 335.035 569.481C334.858 569.84 334.609 570.159 334.302 570.416C333.996 570.674 333.639 570.865 333.255 570.978C332.871 571.09 332.467 571.122 332.07 571.07C326.48 571.2 320.66 571.22 315.58 568.87C314.632 568.492 313.791 567.888 313.13 567.11C312.8 566.653 312.553 566.142 312.4 565.6C312.45 565.688 312.507 565.771 312.57 565.85V565.85Z" fill="#D53A3A"/>
<path id="Vector_197" opacity="0.1" d="M349.19 540.56C348.942 540.271 348.764 539.929 348.67 539.56C348.6 539.163 348.6 538.757 348.67 538.36C348.912 536.122 348.708 533.859 348.07 531.7L348.17 531.59C349.169 534.131 349.536 536.876 349.24 539.59C349.194 539.911 349.178 540.236 349.19 540.56Z" fill="#D53A3A"/>
</g>
<path id="Vector_198" opacity="0.1" d="M338.15 579.73C338.15 579.73 315.15 581.88 313.25 578.36Z" fill="#D53A3A"/>
<path id="Vector_199" opacity="0.1" d="M294.08 568.56C294.08 568.56 281.37 568.09 278.4 572.74Z" fill="#D53A3A"/>
</g>
</g>
</g>
<defs>
<linearGradient id="paint0_linear" x1="699.46" y1="743.44" x2="699.46" y2="205.11" gradientUnits="userSpaceOnUse">
<stop stop-color="#808080" stop-opacity="0.25"/>
<stop offset="0.54" stop-color="#808080" stop-opacity="0.12"/>
<stop offset="1" stop-color="#808080" stop-opacity="0.1"/>
</linearGradient>
<linearGradient id="paint1_linear" x1="204997" y1="332531" x2="204997" y2="182267" gradientUnits="userSpaceOnUse">
<stop stop-color="#808080" stop-opacity="0.25"/>
<stop offset="0.54" stop-color="#808080" stop-opacity="0.12"/>
<stop offset="1" stop-color="#808080" stop-opacity="0.1"/>
</linearGradient>
<linearGradient id="paint2_linear" x1="-171169" y1="329239" x2="-165322" y2="183052" gradientUnits="userSpaceOnUse">
<stop stop-color="#808080" stop-opacity="0.25"/>
<stop offset="0.54" stop-color="#808080" stop-opacity="0.12"/>
<stop offset="1" stop-color="#808080" stop-opacity="0.1"/>
</linearGradient>
<clipPath id="clip0">
<rect x="148" y="55" width="1143.14" height="862.91" fill="white"/>
</clipPath>
</defs>
</svg>
